<svg xmlns="http://www.w3.org/2000/svg" width="356.126" height="257.667" viewBox="0 0 356.126 257.667">
  <g id="celebration" transform="translate(0 0)">
    <path id="Path_3" data-name="Path 3" d="M356.126,262.543h0a.453.453,0,0,1-.453.453H0v-.906H355.673a.453.453,0,0,1,.453.453Z" transform="translate(0 -120.679)" fill="#e6e6e6"/>
    <g id="Group_4" data-name="Group 4" transform="translate(50.773 0)">
      <circle id="Ellipse_1" data-name="Ellipse 1" cx="13.441" cy="13.441" r="13.441" transform="translate(52.732 4.914)" fill="#ffb6b6"/>
      <path id="Path_4" data-name="Path 4" d="M204.179,64.188l-17.692,5.055-2.527,5.687-5.687,27.17v42.967s-6.951,15.165-3.159,28.434c4.052,14.184,18.324-2.557,29.066-.647s27.8,3.806,27.8,3.806l-10.11-46.126L219.344,74.3l-15.165-10.11Z" transform="translate(-130.883 -29.555)" fill="#e6e6e6"/>
      <path id="Path_5" data-name="Path 5" d="M207.437,22.757,204.7,21.391s-.683-6.149-2.05-7.515-1.366-2.05-1.366-2.05l2.05-2.733s-10.248,5.465-12.3,2.05.683-4.782.683-4.782l-3.416-2.733s4.1,2.733,4.782.683,4.782-3.44,4.782-3.44,8.951,2.025,8.233,0,2.015.024,2.7.707,6.832,7.515,7.515,6.832,4.1,1.366,3.416,2.05a1.281,1.281,0,0,0,0,2.05c.683.683,4.782,8.2,1.366,10.931s-8.2,6.149-7.515,8.881,0-8.881-6.149-9.565Z" transform="translate(-137.479 0)" fill="#2f2e41"/>
      <g id="Group_1" data-name="Group 1" transform="translate(0 44.726)">
        <path id="uuid-9ec032c4-1053-42c3-862e-530ead60710b" d="M97.8,95.795c-3.45-2.974-4.712-7.165-2.819-9.36s6.223-1.564,9.674,1.412a11.4,11.4,0,0,1,3.191,4.336l14.458,12.785-6.144,6.657-13.6-13.311a11.4,11.4,0,0,1-4.76-2.519Z" transform="translate(-94.103 -83.922)" fill="#ffb6b6"/>
        <path id="Path_6" data-name="Path 6" d="M155.419,83.76l9.524-.866,8.352,39.833a13.8,13.8,0,0,1-11.012,16.4l-6.864,1.26-43.75-38.521,6.392-10.656,32.264,20.239,5.095-27.69Z" transform="translate(-102.191 -82.895)" fill="#e6e6e6"/>
      </g>
      <g id="Group_2" data-name="Group 2" transform="translate(4.942 82.693)">
        <path id="Path_7" data-name="Path 7" d="M147.34,412.813s-7.554,14.028-7.014,13.489,9.712,2.7,9.712,2.7l5.4-14.028Z" transform="translate(-120.315 -272.772)" fill="#ffb6b6"/>
        <path id="Path_8" data-name="Path 8" d="M129.694,230.817s-3.867,15.456-3.477,14.8,10.077.223,10.077.223l1.775-14.925-8.376-.1Z" transform="translate(-113.819 -188.972)" fill="#ffb6b6"/>
        <path id="Path_9" data-name="Path 9" d="M216.76,217.856c-17.071,2.4-32.489.307-45.053-9.543,0,0-9.172,30.755,7.554,33.992s35.341-2.327,37.5-7.722S216.76,217.856,216.76,217.856Z" transform="translate(-133.622 -178.61)" fill="#2f2e41"/>
        <path id="Path_10" data-name="Path 10" d="M175.1,244l-18.615,43.873-8.633,50.718,11.331,2.7,20.267-46.671,27.483-44.682Z" transform="translate(-123.792 -195.042)" fill="#2f2e41"/>
        <path id="Path_11" data-name="Path 11" d="M163.469,189.709s-4.316-33.452-12.41-35.61a26.423,26.423,0,0,0-10.38-.569,6.426,6.426,0,0,0-5.456,5.249L127.869,200.6h10.4l3.348-11.331,8.9,15.546,12.949-15.107Z" transform="translate(-114.592 -153.262)" fill="#2f2e41"/>
        <path id="Path_12" data-name="Path 12" d="M125.7,248.367l-10.283-1.079-1.587,5.935S97.1,268.33,105.737,269.409s16.726-4.856,16.726-4.856l11.875-6.812S129.747,245.5,126.51,245.5s-.809,2.866-.809,2.866Z" transform="translate(-103.263 -195.733)" fill="#2f2e41"/>
        <path id="Path_13" data-name="Path 13" d="M135.7,435.406l-10.283-1.079-1.587,5.935s-16.726,15.107-8.093,16.187,16.726-4.856,16.726-4.856l11.875-6.812S143.524,432,140.287,432s-4.586,3.406-4.586,3.406Z" transform="translate(-107.867 -281.606)" fill="#2f2e41"/>
      </g>
      <g id="Group_3" data-name="Group 3" transform="translate(74.553 43.59)">
        <path id="uuid-0c2c35cf-ee7e-4b84-8f52-274d32364181" d="M242.569,265.265c-1.24,4.252-4.439,7.06-7.145,6.27s-3.894-4.876-2.653-9.13a11.085,11.085,0,0,1,2.549-4.573l5.481-17.951,8.369,2.752-6.292,17.4a11.086,11.086,0,0,1-.309,5.228Z" transform="translate(-232.279 -154.042)" fill="#ffb6b6"/>
        <path id="Path_14" data-name="Path 14" d="M249.774,82.02l-4.364-1.231h0a49.661,49.661,0,0,0-5.113,26.484l2.154,25.478-7.107,44.782,13.929,3.6,10.977-56.2L249.774,82.02Z" transform="translate(-233.691 -80.789)" fill="#e6e6e6"/>
      </g>
    </g>
    <g id="Group_5" data-name="Group 5" transform="translate(14.856 91.761)">
      <path id="Path_15" data-name="Path 15" d="M78.136,205.186c-.191-.585-1.64-.327-1.779-.85s1.251-.958,2.317-2.427c.192-.265,1.4-1.934.939-2.636-.881-1.331-7.008,1.984-8.479.124a24.58,24.58,0,0,0-1.417-2.413c-.383-.519-.628-.769-.921-.762-.416.01-.565.531-1.219,1.474-.981,1.414-1.335,1.236-1.981,2.4-.48.86-.536,1.41-.882,1.442-.489.046-.692-1.025-1.29-1.067s-1.221,1.016-1.524,1.842a8.176,8.176,0,0,0-.138,3.919,9.682,9.682,0,0,1-1.51,5.577L47.093,232.772c2.826-4.275,10.849-15.931,14.082-20.206.933-1.234,1.936-2.474,3.479-2.707,1.486-.225,3.294.511,5.818.468.295-.005,1.115-.029,1.314-.464.165-.359-.245-.672-.1-1.01.2-.453,1.1-.259,2.324-.56a6.69,6.69,0,0,0,1.956-.864c.152-.091,2.419-1.464,2.165-2.243h0Z" transform="translate(-36.54 -182.111)" fill="#f2f2f2"/>
      <path id="Path_16" data-name="Path 16" d="M34.66,219.834c-.342-.075-.634.71-.931.628s-.109-.891-.523-1.838c-.075-.171-.544-1.247-1.023-1.221-.907.048-1.048,4.012-2.386,4.2a14,14,0,0,0-1.593,0c-.365.038-.559.086-.64.232-.115.207.1.431.372,1.023.411.889.222,1.012.6,1.663.284.484.537.67.453.849-.119.253-.7.044-.9.325s.146.892.465,1.279a4.655,4.655,0,0,0,1.883,1.2,5.512,5.512,0,0,1,2.3,2.35l6.494,12.509c-1.282-2.621-4.689-9.921-5.854-12.742a3.289,3.289,0,0,1-.325-2.489c.319-.794,1.2-1.469,1.908-2.72.083-.146.307-.556.151-.779-.129-.185-.4-.074-.523-.244-.165-.229.19-.614.4-1.3a3.809,3.809,0,0,0,.14-1.209c0-.1-.021-1.61-.476-1.71h0Z" transform="translate(-27.534 -191.863)" fill="#f2f2f2"/>
      <path id="Path_17" data-name="Path 17" d="M52.749,221.492l.2-1.885.125-.118a3.486,3.486,0,0,0,1.077-1.724c.022-.095.038-.191.056-.289a2.947,2.947,0,0,1,.524-1.37c.208-.279.76-.909,1.329-.689a.683.683,0,0,1,.329.263l.056-.056a2.072,2.072,0,0,1,.583-.41,2.423,2.423,0,0,0,.481-.309c.1-.078.176-.148.241-.207a.885.885,0,0,1,.8-.3.944.944,0,0,1,.582.689,4.54,4.54,0,0,1,.228.9,1.425,1.425,0,0,0,.034.173c.081.2,1.1.257,1.483.279.861.047,1.607.087,1.786.677.129.422-.139.882-.82,1.4a3.076,3.076,0,0,1-.608.358.63.63,0,0,1,.21.452h0c.012.471-.47.832-1.435,1.075a3.135,3.135,0,0,1-.984.122,3.666,3.666,0,0,1-.521-.069.62.62,0,0,1-.136.256.932.932,0,0,1-1.032.17,7.606,7.606,0,0,1-1.292-.515,3.331,3.331,0,0,0-.818-.315,1.9,1.9,0,0,0-1.3.553l-1.19.893h0Z" transform="translate(-39.144 -190.469)" fill="#f2f2f2"/>
      <path id="Path_18" data-name="Path 18" d="M51.927,200.337l-1.875.281-.146-.091a3.485,3.485,0,0,0-1.941-.6c-.1,0-.194.011-.293.02a2.947,2.947,0,0,1-1.458-.16c-.323-.131-1.072-.5-1-1.111a.683.683,0,0,1,.171-.385l-.069-.04a2.073,2.073,0,0,1-.545-.46,2.425,2.425,0,0,0-.421-.387c-.1-.075-.188-.132-.262-.181a.885.885,0,0,1-.5-.7.944.944,0,0,1,.519-.738,4.541,4.541,0,0,1,.808-.447,1.423,1.423,0,0,0,.159-.076c.177-.13-.03-1.129-.106-1.505-.173-.845-.323-1.576.2-1.9.376-.231.889-.089,1.566.437a3.075,3.075,0,0,1,.5.5.63.63,0,0,1,.384-.317h0c.452-.131.924.244,1.4,1.115a3.136,3.136,0,0,1,.367.921,3.669,3.669,0,0,1,.066.521.62.62,0,0,1,.282.066.932.932,0,0,1,.426.955,7.605,7.605,0,0,1-.17,1.38,3.329,3.329,0,0,0-.1.871c.05.427.405.744.864,1.115l1.166.925h0Z" transform="translate(-34.925 -180.049)" fill="#f2f2f2"/>
      <path id="Path_19" data-name="Path 19" d="M59.514,191.163l.2-1.885.125-.118a3.485,3.485,0,0,0,1.078-1.724c.022-.095.038-.191.056-.289a2.947,2.947,0,0,1,.524-1.37c.208-.279.76-.909,1.329-.689a.683.683,0,0,1,.329.263l.056-.056a2.073,2.073,0,0,1,.583-.41,2.423,2.423,0,0,0,.481-.309c.1-.078.176-.148.241-.207a.885.885,0,0,1,.8-.3.944.944,0,0,1,.582.689,4.54,4.54,0,0,1,.228.9,1.426,1.426,0,0,0,.034.173c.081.2,1.1.257,1.483.279.861.047,1.607.087,1.786.677.129.422-.139.882-.82,1.4a3.076,3.076,0,0,1-.608.358.631.631,0,0,1,.21.452h0c.012.471-.47.832-1.435,1.075a3.136,3.136,0,0,1-.984.122,3.671,3.671,0,0,1-.521-.069.62.62,0,0,1-.136.256.932.932,0,0,1-1.032.17,7.6,7.6,0,0,1-1.292-.515,3.33,3.33,0,0,0-.818-.315,1.9,1.9,0,0,0-1.3.553l-1.19.893h0Z" transform="translate(-42.259 -176.504)" fill="#f2f2f2"/>
      <path id="Path_20" data-name="Path 20" d="M47.555,226.18l-.331-.327.006-.466-.006.466-.461-.049c0-.043,0-.145,0-.3a65.876,65.876,0,0,1,.295-7.56,75.879,75.879,0,0,1,1.274-8.54c.59-2.841,1.2-4.956,1.694-6.655.371-1.282.746-2.5,1.111-3.681A71.714,71.714,0,0,0,53.6,189.5a9.143,9.143,0,0,0-.15-4.214,8.665,8.665,0,0,0-1.6-3.032l.725-.586a9.611,9.611,0,0,1,1.773,3.359,10.014,10.014,0,0,1,.174,4.628,72.411,72.411,0,0,1-2.5,9.68c-.364,1.18-.737,2.39-1.107,3.667-.487,1.683-1.094,3.779-1.676,6.584a74.952,74.952,0,0,0-1.259,8.435,64.836,64.836,0,0,0-.29,7.456c.009.456.011.551-.135.7h0Z" transform="translate(-36.38 -175.412)" fill="#f2f2f2"/>
      <path id="Path_21" data-name="Path 21" d="M50.523,177.988c-.037-.008-.075-.018-.112-.029a2.978,2.978,0,0,1-1.824-1.852,6.513,6.513,0,0,1-.356-1.981,11.632,11.632,0,0,1,0-1.971c.054-.677.127-.948.311-1.162a1.421,1.421,0,0,1,.771-.442.526.526,0,0,1,.1-.26c.239-.345.64-.2.858-.129a2.286,2.286,0,0,0,.4.115,1.17,1.17,0,0,0,.6-.064,2.59,2.59,0,0,1,.827-.13,2.777,2.777,0,0,1,1.4.433,4.082,4.082,0,0,1,1.588,2.43,7.112,7.112,0,0,1,.368,1.877,2.083,2.083,0,0,1-.151,1.157c-.209.409-.528.6-1.321,1a12.492,12.492,0,0,1-1.585.735,3.5,3.5,0,0,1-1.877.275Z" transform="translate(-37.045 -170.069)" fill="#f2f2f2"/>
    </g>
    <path id="Path_22" data-name="Path 22" d="M433.381,38.543s5.146,3.018,3.458,6-4.04,7.049-2.444,8.329,4.231,6.925,4.231,6.925,11.247-1.571,10.191,7.166-6.34,9.928-1.811,13.771-4.707,8.44-4.707,8.44-6.376-1.987-7.831-8.1,1.3,4.672.374,5.445-4.506,5.869-7.041-.906-.025-9.4-3.375-13.4-5.628-10.466-5.528-11.6-3.832-11.447,2.22-15.47a81.987,81.987,0,0,1,12.261-6.608Z" transform="translate(-192.345 -17.747)" fill="#2f2e41"/>
    <g id="Group_6" data-name="Group 6" transform="translate(237.477 54.999)">
      <path id="uuid-40eda929-ef4c-4923-ad7d-cda70967e632" d="M527.1,197.793c2.988,2.473,6.685,2.935,8.258,1.034s.426-5.447-2.562-7.92a9.705,9.705,0,0,0-4.094-2.062l-12.79-10.316-4.713,6.105,13.109,9.522a9.705,9.705,0,0,0,2.792,3.637Z" transform="translate(-472.857 -137.202)" fill="#ffb6b6"/>
      <path id="Path_23" data-name="Path 23" d="M456.046,106.263s-10.037-6.713-13.324-3.421-2.5,11.513-2.5,11.513l26.322,30.677L487.414,158.3l5.6-8.764-17.548-15.658-19.417-27.614Z" transform="translate(-440.138 -101.934)" fill="#3f3d56"/>
    </g>
    <path id="Path_24" data-name="Path 24" d="M428.4,80.443l3.642,12.945H412.055l6.583-15.95Z" transform="translate(-189.73 -35.656)" fill="#ffb6b6"/>
    <path id="Path_25" data-name="Path 25" d="M428.4,80.443l3.642,12.945H412.055l6.583-15.95Z" transform="translate(-189.73 -35.656)" opacity="0.1"/>
    <g id="Group_7" data-name="Group 7" transform="translate(192.987 63.486)">
      <path id="uuid-c7296f43-523d-4c33-91d5-0d02a2c7186e" d="M361.539,242.574c-.258,3.869,1.529,7.139,3.992,7.3s4.667-2.84,4.925-6.711a9.705,9.705,0,0,0-.722-4.526l.886-16.408-7.709-.252-.055,16.2A9.705,9.705,0,0,0,361.539,242.574Z" transform="translate(-359.445 -165.696)" fill="#ffb6b6"/>
      <path id="Path_26" data-name="Path 26" d="M382.985,130.541s-.426-12.068-5.019-12.808-10.8,4.7-10.8,4.7l-9.486,39.293,1.447,24.69,10.382-.586,2.437-23.392,11.04-31.9Z" transform="translate(-357.679 -117.664)" fill="#3f3d56"/>
    </g>
    <path id="Path_27" data-name="Path 27" d="M480.2,408.813s7.554,14.028,7.014,13.489S477.5,425,477.5,425l-5.4-14.028Z" transform="translate(-217.379 -188.237)" fill="#ffb6b6"/>
    <path id="Path_28" data-name="Path 28" d="M500.618,226.817s3.867,15.456,3.477,14.8-10.077.223-10.077.223l-1.775-14.925,8.375-.1Z" transform="translate(-226.652 -104.437)" fill="#ffb6b6"/>
    <path id="Path_29" data-name="Path 29" d="M413.425,99H394.567l-20.528,14.028-5.935,49.1,3.237,9.712,5.935,11.331s-5.935-24.819,8.633-15.107,15.647,11.331,15.647,11.331l19.424-9.712,7.284-40.2-5.4-22.122Z" transform="translate(-169.492 -45.584)" fill="#3f3d56"/>
    <path id="Path_30" data-name="Path 30" d="M382.284,213.856c17.07,2.4,32.489.307,45.053-9.543,0,0,9.172,30.754-7.554,33.992s-35.341-2.327-37.5-7.722S382.284,213.856,382.284,213.856Z" transform="translate(-175.58 -94.075)" fill="#2f2e41"/>
    <path id="Path_31" data-name="Path 31" d="M414.937,240l18.615,43.873,8.633,50.718-11.331,2.7-20.267-46.671L383.1,245.935Z" transform="translate(-176.399 -110.507)" fill="#2f2e41"/>
    <path id="Path_32" data-name="Path 32" d="M446.6,185.709s4.316-33.452,12.41-35.61a26.423,26.423,0,0,1,10.38-.569,6.426,6.426,0,0,1,5.456,5.249L482.2,196.6H471.8l-3.348-11.331-8.9,15.546L446.6,185.709Z" transform="translate(-205.637 -68.727)" fill="#2f2e41"/>
    <path id="Path_33" data-name="Path 33" d="M488.231,244.367l10.283-1.079,1.587,5.935s16.726,15.108,8.093,16.187-16.726-4.856-16.726-4.856l-11.875-6.812s4.592-12.241,7.829-12.241S488.231,244.367,488.231,244.367Z" transform="translate(-220.827 -111.198)" fill="#2f2e41"/>
    <path id="Path_34" data-name="Path 34" d="M478.231,431.406l10.283-1.079,1.587,5.935s16.726,15.107,8.093,16.187-16.726-4.856-16.726-4.856l-11.875-6.812s.815-12.78,4.052-12.78,4.586,3.406,4.586,3.406Z" transform="translate(-216.223 -197.072)" fill="#2f2e41"/>
    <circle id="Ellipse_2" data-name="Ellipse 2" cx="12.038" cy="12.038" r="12.038" transform="translate(221.886 23.525)" fill="#ffb6b6"/>
    <path id="Path_35" data-name="Path 35" d="M412.174,38.563s2.006,5.618-1.2,6.821-7.624,2.809-7.223,4.815-1.2,8.025-1.2,8.025,9.63,6.019,3.21,12.038-11.235,3.539-10.232,9.393-9.028,3.447-9.028,3.447-3.611-5.618-.8-11.235-2.006,4.414-3.21,4.414-7.223,1.605-4.815-5.216,6.019-7.223,6.019-12.439,2.408-11.636,3.21-12.439,4.414-11.235,11.636-10.433a81.984,81.984,0,0,1,13.643,2.809Z" transform="translate(-173.636 -16.443)" fill="#2f2e41"/>
    <path id="Path_36" data-name="Path 36" d="M241.094,408.813s-7.554,14.028-7.014,13.489,9.712,2.7,9.712,2.7l5.4-14.028Z" transform="translate(-107.769 -188.237)" fill="#a0616a"/>
    <path id="Path_37" data-name="Path 37" d="M310.514,213.856c-17.071,2.4-32.489.307-45.053-9.543,0,0-9.172,30.754,7.554,33.992s35.341-2.327,37.5-7.722S310.514,213.856,310.514,213.856Z" transform="translate(-121.075 -94.075)" fill="#2f2e41"/>
    <path id="Path_38" data-name="Path 38" d="M268.85,240l-18.615,43.873L241.6,334.591l11.331,2.7L273.2,290.617l27.483-44.682Z" transform="translate(-111.245 -110.507)" fill="#2f2e41"/>
    <path id="Path_39" data-name="Path 39" d="M229.455,431.406l-10.283-1.079-1.587,5.935s-16.726,15.107-8.093,16.187,16.726-4.856,16.726-4.856l11.875-6.812S237.278,428,234.041,428s-4.586,3.406-4.586,3.406Z" transform="translate(-95.32 -197.072)" fill="#2f2e41"/>
    <path id="Path_40" data-name="Path 40" d="M276.547,394.754s-2.857,15.674-2.511,14.995,10.07-.43,10.07-.43l.8-15.009-8.364.444Z" transform="translate(-126.166 -181.559)" fill="#a0616a"/>
    <path id="Path_41" data-name="Path 41" d="M265.88,217.109l-4.172,47.475,7.435,50.907,11.61-.93,4.88-50.647,12.358-50.981Z" transform="translate(-120.503 -98.045)" fill="#2f2e41"/>
    <path id="Path_42" data-name="Path 42" d="M274.608,414.9l-10.115,2.146.322,6.135s-11.25,19.531-2.7,17.894,14.412-9.779,14.412-9.779l9.195-10.144s-4.718-11.905-7.8-10.907-3.312,4.655-3.312,4.655Z" transform="translate(-119.213 -188.871)" fill="#2f2e41"/>
    <path id="Path_43" data-name="Path 43" d="M274.239,38.543s-5.146,3.018-3.458,6,4.04,7.049,2.444,8.329-4.231,6.925-4.231,6.925-11.247-1.571-10.191,7.166,6.34,9.928,1.811,13.771,4.707,8.44,4.707,8.44,6.376-1.987,7.83-8.1-1.3,4.672-.374,5.445,4.506,5.869,7.041-.906.025-9.4,3.375-13.4,5.628-10.466,5.528-11.6,3.832-11.447-2.22-15.47a81.985,81.985,0,0,0-12.261-6.608Z" transform="translate(-119.133 -17.747)" fill="#2f2e41"/>
    <path id="Path_44" data-name="Path 44" d="M288.745,80.443,285.1,93.388h19.989l-6.582-15.95Z" transform="translate(-131.275 -35.656)" fill="#a0616a"/>
    <path id="Path_45" data-name="Path 45" d="M288.745,80.443,285.1,93.388h19.989l-6.582-15.95Z" transform="translate(-131.275 -35.656)" opacity="0.1"/>
    <g id="Group_8" data-name="Group 8" transform="translate(177.849 63.486)">
      <path id="uuid-30591428-cd87-4ca8-90c0-8a5e265d7e31" d="M364.9,242.574c.258,3.869-1.529,7.139-3.992,7.3s-4.667-2.84-4.925-6.711a9.706,9.706,0,0,1,.722-4.526l-.886-16.408,7.709-.252.055,16.2a9.706,9.706,0,0,1,1.317,4.392Z" transform="translate(-341.684 -165.696)" fill="#a0616a"/>
      <path id="Path_46" data-name="Path 46" d="M329.624,130.541s.426-12.068,5.019-12.808,10.8,4.7,10.8,4.7l9.486,39.293-1.447,24.69-10.382-.586-2.437-23.392-11.04-31.9Z" transform="translate(-329.624 -117.664)" fill="#6495ed"/>
    </g>
    <path id="Path_47" data-name="Path 47" d="M273.355,99h18.859l20.529,14.028,5.935,49.1-3.237,9.712L309.5,183.17s5.935-24.819-8.633-15.107l-.433.289a25.49,25.49,0,0,1-30.432-1.578l-6.9-5.725,3.777-18.884-2.968-34.8L273.355,99Z" transform="translate(-121.145 -45.584)" fill="#6495ed"/>
    <g id="Group_9" data-name="Group 9" transform="translate(96.073 55.047)">
      <path id="uuid-53b096d6-03cc-438c-8f9a-f5acbbdd06bd" d="M187.007,196.637c-3.025,2.427-6.729,2.833-8.273.908s-.344-5.452,2.682-7.88a9.705,9.705,0,0,1,4.125-2l12.946-10.121,4.62,6.176-13.253,9.321a9.706,9.706,0,0,1-2.847,3.594Z" transform="translate(-178.061 -136.798)" fill="#a0616a"/>
      <path id="Path_48" data-name="Path 48" d="M235.163,106.19s10.138-6.559,13.375-3.218,2.327,11.55,2.327,11.55l-26.786,30.273-21.072,12.949-5.463-8.848,17.784-15.39,19.835-27.316Z" transform="translate(-187.032 -102.023)" fill="#6495ed"/>
    </g>
    <circle id="Ellipse_3" data-name="Ellipse 3" cx="12.038" cy="12.038" r="12.038" transform="translate(150.181 23.525)" fill="#a0616a"/>
    <path id="Path_49" data-name="Path 49" d="M288.759,45.912S286.986,40,289.941,40s14.779.591,15.961,1.773,15.172,13.048,6.9,22.506,0,14.028,0,14.028,6.109,14.3.2,15.486-30.16-5.578-24.237-16.552c6.427-11.909,9.418-30.706,0-31.331Z" transform="translate(-132.533 -18.418)" fill="#2f2e41"/>
    <g id="Group_10" data-name="Group 10" transform="translate(311.61 92.301)">
      <path id="Path_50" data-name="Path 50" d="M628.137,206.186c-.191-.585-1.64-.327-1.779-.85s1.251-.958,2.317-2.427c.192-.265,1.4-1.934.939-2.636-.881-1.331-7.008,1.984-8.479.124a24.57,24.57,0,0,0-1.417-2.413c-.383-.519-.628-.769-.921-.762-.416.01-.565.531-1.219,1.474-.981,1.414-1.335,1.236-1.981,2.4-.48.86-.536,1.41-.882,1.442-.489.046-.692-1.025-1.29-1.067s-1.221,1.016-1.523,1.842a8.175,8.175,0,0,0-.138,3.919,9.682,9.682,0,0,1-1.51,5.577l-13.161,20.968c2.826-4.274,10.849-15.931,14.082-20.206.933-1.234,1.936-2.474,3.479-2.707,1.486-.225,3.294.511,5.818.468.295-.005,1.115-.029,1.314-.464.165-.359-.245-.672-.1-1.01.2-.453,1.1-.259,2.324-.56a6.69,6.69,0,0,0,1.956-.864c.152-.091,2.419-1.464,2.165-2.243Z" transform="translate(-586.54 -183.111)" fill="#f2f2f2"/>
      <path id="Path_51" data-name="Path 51" d="M584.66,220.834c-.342-.075-.634.71-.931.628s-.109-.891-.523-1.838c-.075-.171-.544-1.247-1.023-1.221-.907.048-1.048,4.012-2.386,4.2a13.994,13.994,0,0,0-1.593,0c-.365.038-.559.086-.64.232-.115.207.1.431.372,1.023.411.889.222,1.012.6,1.663.284.484.537.67.453.849-.119.253-.7.044-.9.325s.146.892.465,1.279a4.655,4.655,0,0,0,1.883,1.2,5.512,5.512,0,0,1,2.3,2.35l6.494,12.509c-1.282-2.621-4.689-9.921-5.854-12.742a3.288,3.288,0,0,1-.325-2.489c.318-.794,1.2-1.469,1.908-2.72.083-.146.307-.556.151-.779-.129-.185-.4-.074-.523-.244-.165-.229.19-.614.4-1.3a3.807,3.807,0,0,0,.14-1.209c0-.1-.021-1.61-.476-1.71h0Z" transform="translate(-577.534 -192.863)" fill="#f2f2f2"/>
      <path id="Path_52" data-name="Path 52" d="M602.749,222.492l.2-1.885.125-.118a3.486,3.486,0,0,0,1.078-1.724c.022-.095.038-.191.055-.289a2.947,2.947,0,0,1,.525-1.37c.208-.279.76-.909,1.329-.689a.683.683,0,0,1,.329.263l.056-.056a2.072,2.072,0,0,1,.583-.41,2.425,2.425,0,0,0,.481-.309c.1-.078.176-.148.241-.207a.885.885,0,0,1,.8-.3.944.944,0,0,1,.582.689,4.535,4.535,0,0,1,.228.9,1.432,1.432,0,0,0,.034.173c.081.2,1.1.257,1.483.279.861.047,1.607.087,1.786.677.129.422-.14.882-.82,1.4a3.076,3.076,0,0,1-.608.358.631.631,0,0,1,.21.452h0c.012.471-.47.832-1.435,1.075a3.136,3.136,0,0,1-.984.122,3.667,3.667,0,0,1-.521-.069.621.621,0,0,1-.136.256.932.932,0,0,1-1.032.17,7.605,7.605,0,0,1-1.292-.515,3.331,3.331,0,0,0-.818-.315,1.9,1.9,0,0,0-1.3.553l-1.19.893h0Z" transform="translate(-589.144 -191.469)" fill="#f2f2f2"/>
      <path id="Path_53" data-name="Path 53" d="M601.927,201.337l-1.875.281-.146-.091a3.486,3.486,0,0,0-1.941-.6c-.1,0-.194.011-.293.02a2.947,2.947,0,0,1-1.458-.16c-.323-.131-1.072-.5-1-1.111a.683.683,0,0,1,.171-.385l-.069-.04a2.072,2.072,0,0,1-.545-.46,2.426,2.426,0,0,0-.421-.387c-.1-.075-.188-.132-.262-.181a.884.884,0,0,1-.5-.7.944.944,0,0,1,.519-.738,4.546,4.546,0,0,1,.808-.447,1.416,1.416,0,0,0,.159-.076c.177-.13-.03-1.129-.106-1.505-.173-.845-.323-1.576.2-1.9.376-.231.889-.089,1.566.437a3.077,3.077,0,0,1,.5.5.63.63,0,0,1,.384-.317h0c.452-.131.924.244,1.4,1.115a3.139,3.139,0,0,1,.367.921,3.674,3.674,0,0,1,.066.521.62.62,0,0,1,.282.066.932.932,0,0,1,.426.955,7.606,7.606,0,0,1-.17,1.38,3.33,3.33,0,0,0-.1.871c.05.427.405.744.864,1.115l1.166.925h0Z" transform="translate(-584.925 -181.049)" fill="#f2f2f2"/>
      <path id="Path_54" data-name="Path 54" d="M609.513,192.163l.2-1.885.125-.118a3.485,3.485,0,0,0,1.077-1.724c.022-.095.038-.191.056-.289a2.945,2.945,0,0,1,.524-1.37c.208-.279.76-.909,1.329-.689a.683.683,0,0,1,.329.263l.056-.056a2.074,2.074,0,0,1,.583-.41,2.423,2.423,0,0,0,.481-.309c.1-.078.176-.148.241-.207a.885.885,0,0,1,.8-.3.944.944,0,0,1,.582.689,4.543,4.543,0,0,1,.228.9,1.453,1.453,0,0,0,.033.173c.081.2,1.1.257,1.483.279.861.047,1.607.087,1.786.677.129.422-.139.882-.82,1.4a3.073,3.073,0,0,1-.608.358.631.631,0,0,1,.21.452h0c.012.471-.47.832-1.435,1.075a3.135,3.135,0,0,1-.984.122,3.672,3.672,0,0,1-.521-.069.618.618,0,0,1-.136.256.932.932,0,0,1-1.032.17,7.605,7.605,0,0,1-1.292-.515,3.329,3.329,0,0,0-.818-.315,1.9,1.9,0,0,0-1.3.553l-1.19.893h0Z" transform="translate(-592.258 -177.504)" fill="#f2f2f2"/>
      <path id="Path_55" data-name="Path 55" d="M597.556,227.18l-.331-.327.006-.466-.006.466-.461-.049c0-.043,0-.145,0-.3a65.879,65.879,0,0,1,.295-7.56,75.883,75.883,0,0,1,1.274-8.54c.59-2.841,1.2-4.956,1.694-6.655.371-1.282.746-2.5,1.111-3.681A71.713,71.713,0,0,0,603.6,190.5a9.143,9.143,0,0,0-.15-4.214,8.665,8.665,0,0,0-1.6-3.032l.725-.586a9.611,9.611,0,0,1,1.773,3.359,10.015,10.015,0,0,1,.174,4.628,72.415,72.415,0,0,1-2.5,9.68c-.364,1.18-.737,2.39-1.107,3.667-.487,1.683-1.094,3.779-1.676,6.584a74.979,74.979,0,0,0-1.259,8.435,64.827,64.827,0,0,0-.29,7.456c.009.456.011.551-.135.7h0Z" transform="translate(-586.38 -176.412)" fill="#f2f2f2"/>
      <path id="Path_56" data-name="Path 56" d="M600.523,178.988c-.037-.008-.075-.018-.112-.029a2.978,2.978,0,0,1-1.824-1.852,6.511,6.511,0,0,1-.356-1.981,11.633,11.633,0,0,1,0-1.971c.054-.677.127-.948.311-1.162a1.421,1.421,0,0,1,.771-.442.527.527,0,0,1,.1-.26c.24-.345.64-.2.858-.129a2.287,2.287,0,0,0,.4.115,1.17,1.17,0,0,0,.6-.064,2.59,2.59,0,0,1,.827-.13,2.777,2.777,0,0,1,1.4.433,4.082,4.082,0,0,1,1.588,2.43,7.112,7.112,0,0,1,.368,1.877,2.083,2.083,0,0,1-.151,1.157c-.209.409-.528.6-1.321,1a12.489,12.489,0,0,1-1.585.735,3.5,3.5,0,0,1-1.877.275Z" transform="translate(-587.044 -171.069)" fill="#f2f2f2"/>
    </g>
    <g id="Group_11" data-name="Group 11" transform="translate(88.792 86.238)">
      <path id="Path_57" data-name="Path 57" d="M166.64,187.324l-.609-19.2a1.112,1.112,0,0,1,1.178-1.146l15.239.914a1.112,1.112,0,0,1,1.036,1.259l-2.578,19.087a1.115,1.115,0,0,1-1.176.961l-12.052-.8a1.121,1.121,0,0,1-.347-.079A1.109,1.109,0,0,1,166.64,187.324Z" transform="translate(-165.241 -163.12)" fill="#6495ed"/>
      <path id="Path_58" data-name="Path 58" d="M165.376,163.036c.213-.022.5-.05.842-.079a.875.875,0,0,1-.09-.58l.272-1.438a.88.88,0,0,1,.748-.71c2.244-.3,9.962-1.114,14.821,1.091a.877.877,0,0,1,.509.775l.044,1.535a.876.876,0,0,1-.146.511c.4.109.807.224,1.206.349a.666.666,0,0,1,.46.56l.075.654a.668.668,0,0,1-.709.743l-18.219-1.23a.668.668,0,0,1-.6-.827l.21-.849a.668.668,0,0,1,.579-.5Z" transform="translate(-164.567 -159.832)" fill="#3f3d56"/>
    </g>
    <g id="Group_12" data-name="Group 12" transform="translate(42.931 31.743)">
      <path id="Path_59" data-name="Path 59" d="M81.64,86.324l-.609-19.2a1.112,1.112,0,0,1,1.178-1.146l15.239.914a1.112,1.112,0,0,1,1.036,1.259L95.906,87.235a1.115,1.115,0,0,1-1.176.961l-12.052-.8a1.12,1.12,0,0,1-.347-.079,1.109,1.109,0,0,1-.692-1Z" transform="translate(-80.241 -62.12)" fill="#6495ed"/>
      <path id="Path_60" data-name="Path 60" d="M80.376,62.036c.213-.022.5-.05.842-.079a.875.875,0,0,1-.09-.58l.272-1.438a.88.88,0,0,1,.748-.71c2.244-.3,9.962-1.114,14.821,1.091a.877.877,0,0,1,.509.775l.044,1.535a.876.876,0,0,1-.146.511c.4.109.807.224,1.206.349a.666.666,0,0,1,.46.56l.076.654a.668.668,0,0,1-.709.743l-18.219-1.23a.668.668,0,0,1-.6-.827l.21-.849a.668.668,0,0,1,.579-.5Z" transform="translate(-79.567 -58.832)" fill="#3f3d56"/>
    </g>
    <g id="Group_13" data-name="Group 13" transform="translate(281.952 91.094)">
      <path id="Path_61" data-name="Path 61" d="M524.64,196.324l-.609-19.2a1.112,1.112,0,0,1,1.178-1.146l15.239.914a1.112,1.112,0,0,1,1.036,1.259l-2.578,19.087a1.115,1.115,0,0,1-1.176.961l-12.052-.8a1.12,1.12,0,0,1-.347-.079,1.109,1.109,0,0,1-.692-1Z" transform="translate(-523.241 -172.12)" fill="#6495ed"/>
      <path id="Path_62" data-name="Path 62" d="M523.376,172.036c.213-.022.5-.05.842-.079a.876.876,0,0,1-.09-.58l.272-1.438a.88.88,0,0,1,.748-.71c2.244-.3,9.962-1.114,14.821,1.091a.877.877,0,0,1,.509.775l.044,1.535a.876.876,0,0,1-.146.511c.4.109.807.224,1.206.349a.666.666,0,0,1,.459.56l.076.654a.668.668,0,0,1-.709.743l-18.219-1.23a.668.668,0,0,1-.6-.827l.21-.849a.668.668,0,0,1,.579-.5Z" transform="translate(-522.567 -168.832)" fill="#3f3d56"/>
    </g>
  </g>
</svg>
