<svg xmlns="http://www.w3.org/2000/svg" width="336" height="194" viewBox="0 0 336 194">
  <g id="forgot_password" transform="translate(0 0)">
    <path id="Path_213" data-name="Path 213" d="M440.571,429.362c11.515-17.6,33.479-31.111,56.73-29.809-17.151,16.2-27.152,37.156-28.234,59.15-.382,8.483.21,17.953-6.273,24.306-4.034,3.953-10.2,5.867-16.262,6.268s-12.124-.55-18.106-1.5l-1.451.387C426.423,467.929,429.056,446.961,440.571,429.362Z" transform="translate(-320.048 -317.714)" fill="#f0f0f0"/>
    <path id="Path_214" data-name="Path 214" d="M497.316,399.121c-17.194,7.191-31.855,19.2-40.855,33.849a31.658,31.658,0,0,0-4.325,10.078,17.284,17.284,0,0,0,1.179,10.312c1.277,3.086,2.995,6.113,3.387,9.415a11.135,11.135,0,0,1-3.714,9.317c-3.246,3.16-7.605,5.118-11.945,6.9-4.818,1.983-9.859,3.977-13.272,7.678-.414.448-1.19-.135-.777-.583,5.938-6.439,16.1-7.65,23.149-12.837,3.289-2.42,5.758-5.717,5.6-9.579-.136-3.377-1.9-6.5-3.229-9.616a18.5,18.5,0,0,1-1.585-10.045,28.949,28.949,0,0,1,3.863-10.186,78.865,78.865,0,0,1,16.37-19.546,94.349,94.349,0,0,1,25.82-16.006.454.454,0,1,1,.333.844Z" transform="translate(-320.028 -316.858)" fill="#fff"/>
    <path id="Path_215" data-name="Path 215" d="M507.766,460.916c-5.444-3.458-7.2-9.834-4.154-15.061.3-.511,1.229-.129.928.383-2.85,4.864-1.2,10.807,3.9,14,.535.337-.139,1.01-.671.675Z" transform="translate(-368.696 -349.699)" fill="#fff"/>
    <path id="Path_216" data-name="Path 216" d="M498.39,553.863a27.677,27.677,0,0,0,16.8-8.32c.415-.447,1.192.136.777.583a28.807,28.807,0,0,1-17.5,8.626.449.449,0,1,1-.075-.89Z" transform="translate(-365.988 -418.851)" fill="#fff"/>
    <path id="Path_217" data-name="Path 217" d="M573.365,432.442a8.493,8.493,0,0,0,6.965,2.157.449.449,0,1,1,.075.89,9.525,9.525,0,0,1-7.711-2.372.419.419,0,0,1-.053-.629.572.572,0,0,1,.724-.046Z" transform="translate(-414.229 -340.495)" fill="#fff"/>
    <path id="Path_218" data-name="Path 218" d="M541.923,555.611c-.406.065-.813.131-1.223.2a115,115,0,0,0-16.045,3.853c-.406.123-.815.252-1.216.385a112.212,112.212,0,0,0-34.026,17.99,98.408,98.408,0,0,0-11.021,10.034c-4.661,4.948-9.262,10.635-15.353,13.861a19.027,19.027,0,0,1-1.961.924L425.99,590.216c-.063-.064-.13-.12-.193-.184l-1.428-.449c.159-.2.329-.395.488-.59.092-.114.191-.224.283-.338.064-.075.128-.15.18-.22.021-.025.043-.05.06-.068.053-.071.11-.132.159-.2q1.42-1.677,2.872-3.343c0-.007,0-.007.014-.011a144.4,144.4,0,0,1,25.085-23.062c.283-.2.569-.406.868-.6a102.3,102.3,0,0,1,13.551-7.964q3.916-1.9,8.039-3.453a82.816,82.816,0,0,1,22.329-4.948c15.341-1.238,30.967,1.8,42.733,10.174C541.332,555.178,541.626,555.39,541.923,555.611Z" transform="translate(-318.406 -418.256)" fill="#f0f0f0"/>
    <path id="Path_219" data-name="Path 219" d="M542.553,576.36a104.481,104.481,0,0,0-56.077,5.656,40.693,40.693,0,0,0-10.437,5.785,19.445,19.445,0,0,0-6.2,8.85c-1.119,3.132-1.845,6.448-3.82,9.289a14.1,14.1,0,0,1-9.422,5.5c-4.781.825-9.619.108-14.322-.736-5.221-.937-10.628-1.982-15.917-.812a.451.451,0,1,1-.217-.872c9.2-2.036,18.157,2.314,27.379,1.859,4.3-.212,8.559-1.553,11.111-4.718,2.232-2.768,2.984-6.187,4.085-9.366a20.451,20.451,0,0,1,5.7-8.85,37.093,37.093,0,0,1,10.143-6.112,99.148,99.148,0,0,1,26.615-7.043,107.268,107.268,0,0,1,31.708.726c.646.112.323.96-.319.848Z" transform="translate(-319.3 -438.646)" fill="#fff"/>
    <path id="Path_220" data-name="Path 220" d="M612.151,559.83c-1.95-5.609,1.064-11.62,7.12-14.2.594-.251,1.071.54.476.791-5.646,2.393-8.444,8-6.592,13.219.194.549-.811.734-1,.188Z" transform="translate(-439.478 -418.99)" fill="#fff"/>
    <path id="Path_221" data-name="Path 221" d="M550.011,642.418a30.107,30.107,0,0,0,19.179,2.145.451.451,0,1,1,.217.872,31.309,31.309,0,0,1-19.952-2.267C548.875,642.89,549.435,642.142,550.011,642.418Z" transform="translate(-399.151 -486.066)" fill="#fff"/>
    <path id="Path_222" data-name="Path 222" d="M694.542,575.281a6.8,6.8,0,0,0,4.066,5.366c.583.271.023,1.019-.557.75a7.628,7.628,0,0,1-4.513-5.927.465.465,0,0,1,.394-.53.521.521,0,0,1,.61.342Z" transform="translate(-492.493 -439.33)" fill="#fff"/>
    <path id="Path_223" data-name="Path 223" d="M281.058,528.842C276.144,508.2,270,501.317,270,501.317l-2.347-1.581-2.822-1.9.014-.245-.669-.2-.157-.106-.258-.172-.041.039-.087.079-12.77-3.771-16.2-4.781-7.5-8.472a13.762,13.762,0,0,0-10.38-4.4l-23.959.154a14.1,14.1,0,0,0-8.728,3.008l-15.748,12.691L143.808,501.84l-.041-.036-.258.16-3.791,1.575.156.708-2.347,1.471s-6.143,6.4-11.057,25.612c-1.25,4.887-1.865,15.372-2.088,28.291a4.613,4.613,0,0,0,1.632,3.534,6.131,6.131,0,0,0,4.042,1.471H277.478a6.133,6.133,0,0,0,4.04-1.469,4.615,4.615,0,0,0,1.634-3.53C282.935,545.568,282.32,534.143,281.058,528.842Z" transform="translate(-124.382 -370.626)" fill="#3f3d56"/>
    <path id="Path_224" data-name="Path 224" d="M580.343,191.732c-10.618,0-19.226,7.479-19.226,16.7s8.608,16.7,19.226,16.7H723.626c10.618,0,19.226-7.479,19.226-16.7s-8.608-16.7-19.226-16.7Z" transform="translate(-406.852 -173.73)" fill="#e5e5e5"/>
    <path id="Path_225" data-name="Path 225" d="M587.468,202.747c-8.469,0-15.335,5.965-15.335,13.323s6.866,13.323,15.335,13.323H730.75c8.469,0,15.335-5.965,15.335-13.323s-6.866-13.323-15.335-13.323Z" transform="translate(-413.977 -181.364)" fill="#fff"/>
    <ellipse id="ab6171fa-7d69-4734-b81c-8dff60f9761b" cx="31.388" cy="27.27" rx="31.388" ry="27.27" transform="translate(52.793 42.819)" fill="#9e616a"/>
    <path id="Path_226" data-name="Path 226" d="M339.237,444.229q-.2-.385-.4-.772c.051,0,.1.008.154.009Z" transform="translate(-263.086 -348.204)" fill="#2f2e41"/>
    <path id="Path_227" data-name="Path 227" d="M248.848,247.445a9.429,9.429,0,0,1,5.473-2.056c2.03.057,4.088,1.65,3.667,3.376,7.7-11.838,24.061-17.169,38.817-12.646,5.045,1.546,9.992,4.64,11.151,9.177.3,1.165.361,2.442,1.2,3.388a4.914,4.914,0,0,0,4.737,1.043l.05-.013a1.632,1.632,0,0,1,1.606.382,1.157,1.157,0,0,1,.186,1.437l-1.427,2.313a13.117,13.117,0,0,0,5.45-.1,1.6,1.6,0,0,1,1.6.52,1.152,1.152,0,0,1-.026,1.484,27.224,27.224,0,0,1-20.594,9.2c-5.7-.03-11.465-1.738-17.015-.6a14.546,14.546,0,0,0-9.931,6.949,11.334,11.334,0,0,0-.011,11.078c-1.705-1.62-5-1.237-6.746.352a7.321,7.321,0,0,0-2.02,6.15c.269,3.35,1.779,6.506,3.372,9.578-13.352-.365-25.981-8.5-30.232-19.509C233.885,267.892,238.359,254.715,248.848,247.445Z" transform="translate(-196.928 -203.386)" fill="#2f2e41"/>
    <path id="Path_228" data-name="Path 228" d="M87.464,495.253l8.8,41.615,5.282.4Z" transform="translate(-56.569 -343.268)" opacity="0.2"/>
    <path id="Path_229" data-name="Path 229" d="M336.214,485.026l-8.8,44.724-5.282.43Z" transform="translate(-208.345 -336.18)" opacity="0.2"/>
    <path id="Path_230" data-name="Path 230" d="M260.231,163.123a3.292,3.292,0,0,1-4.188-1.6,2.64,2.64,0,0,1,1.666-3.767,3.277,3.277,0,0,1,4.207,1.636A2.6,2.6,0,0,1,260.231,163.123ZM257,154.689l-1.342.487a1.552,1.552,0,0,1-1.839-.586l-.066-.113c-1.444-2.263-1.61-5.013-.489-8.169,1.038-2.832,1.469-4.823.6-6.627-1-2.086-3.143-2.739-5.874-1.793a5.224,5.224,0,0,0-2.229,1.1,2.072,2.072,0,0,1-1.385.489,1.988,1.988,0,0,1-1.324-.5,1.488,1.488,0,0,1-.013-2.239,14.917,14.917,0,0,1,4.961-2.96c5.866-2.128,8.819,1.014,10.17,3.825,1.322,2.75.578,5.3-.616,8.606-1,2.746-.943,4.78.194,6.8a1.1,1.1,0,0,1,.038.981A1.354,1.354,0,0,1,257,154.689Z" transform="translate(-200.802 -133.069)" fill="#6495ed"/>
    <path id="Path_231" data-name="Path 231" d="M651.692,269.427H623.185a.6.6,0,1,1,0-1.193h28.508a.6.6,0,1,1,0,1.193Z" transform="translate(-446.552 -226.755)" fill="#6c63ff"/>
    <path id="Path_232" data-name="Path 232" d="M754.073,270.075H725.566a.6.6,0,1,1,0-1.193h28.508a.6.6,0,1,1,0,1.193Z" transform="translate(-512.769 -227.204)" fill="#6c63ff"/>
    <path id="Path_233" data-name="Path 233" d="M856.455,270.723H827.948a.6.6,0,1,1,0-1.193h28.508a.6.6,0,1,1,0,1.193Z" transform="translate(-578.987 -227.653)" fill="#6c63ff"/>
    <path id="Path_234" data-name="Path 234" d="M958.833,271.371H930.326a.6.6,0,1,1,0-1.193h28.508a.6.6,0,1,1,0,1.193Z" transform="translate(-645.203 -228.102)" fill="#6c63ff"/>
    <ellipse id="Ellipse_45" data-name="Ellipse 45" cx="5.298" cy="4.603" rx="5.298" ry="4.603" transform="translate(185.526 27.976)" fill="#6495ed"/>
    <ellipse id="Ellipse_46" data-name="Ellipse 46" cx="5.298" cy="4.603" rx="5.298" ry="4.603" transform="translate(221.908 27.976)" fill="#6495ed"/>
    <ellipse id="Ellipse_47" data-name="Ellipse 47" cx="5.298" cy="4.603" rx="5.298" ry="4.603" transform="translate(258.29 27.976)" fill="#6495ed"/>
    <ellipse id="Ellipse_48" data-name="Ellipse 48" cx="5.298" cy="4.603" rx="5.298" ry="4.603" transform="translate(294.672 27.976)" fill="#6495ed"/>
  </g>
</svg>
