<svg xmlns="http://www.w3.org/2000/svg" width="200.558" height="265.359" viewBox="0 0 200.558 265.359">
  <g id="fun" transform="translate(-63.972)">
    <path id="Path_95" data-name="Path 95" d="M115.894,88.744l-2.219,10.487,11.061,2.807-1.374-11.2Z" transform="translate(-43.645 -44.429)" fill="#a0616a"/>
    <g id="Group_18" data-name="Group 18" transform="translate(73.706 118.503)">
      <path id="Path_97" data-name="Path 97" d="M245.632,238.309H131.561c-12.936,0-23.422,9.441-23.422,21.088v99.589c0,11.647,10.486,21.088,23.422,21.088H245.632c12.936,0,23.422-9.441,23.422-21.088V259.4c0-11.647-10.486-21.088-23.422-21.088h0Z" transform="translate(-107.584 -237.809)" fill="#fff"/>
      <path id="Path_98" data-name="Path 98" d="M245.187,380.072H131.116c-13.221,0-23.977-9.684-23.977-21.587V258.9c0-11.9,10.756-21.587,23.977-21.587H245.187c13.221,0,23.977,9.684,23.977,21.587v99.589c0,11.9-10.756,21.587-23.977,21.587ZM131.116,238.307c-12.609,0-22.868,9.236-22.868,20.589v99.589c0,11.353,10.258,20.588,22.868,20.588H245.187c12.609,0,22.868-9.236,22.868-20.588V258.9c0-11.353-10.258-20.589-22.868-20.589Z" transform="translate(-107.139 -237.309)" fill="#3f3d56"/>
      <path id="Path_99" data-name="Path 99" d="M331.286,318.4h-45.85a3.193,3.193,0,1,1,0-6.351h45.85a3.193,3.193,0,1,1,0,6.351Z" transform="translate(-184.976 -274.728)" fill="#6c63ff"/>
      <path id="Path_100" data-name="Path 100" d="M255.957,371.1H211.388a1.845,1.845,0,1,1,0-3.669h44.569a1.845,1.845,0,1,1,0,3.669Z" transform="translate(-152.661 -302.452)" fill="#6c63ff"/>
      <rect id="Rectangle_4" data-name="Rectangle 4" width="25.789" height="2.977" rx="0.31" transform="translate(14.686 7.32)" fill="#6c63ff"/>
      <ellipse id="Ellipse_11" data-name="Ellipse 11" cx="2.645" cy="2.381" rx="2.645" ry="2.381" transform="translate(123.366 5.534)" fill="#3f3d56"/>
      <ellipse id="Ellipse_12" data-name="Ellipse 12" cx="2.645" cy="2.381" rx="2.645" ry="2.381" transform="translate(130.64 5.534)" fill="#3f3d56"/>
      <ellipse id="Ellipse_13" data-name="Ellipse 13" cx="2.645" cy="2.381" rx="2.645" ry="2.381" transform="translate(137.914 5.534)" fill="#3f3d56"/>
      <path id="Path_101" data-name="Path 101" d="M149.868,393.849a.628.628,0,0,0,.66.594H263.834a.6.6,0,1,0,0-1.188H150.528a.628.628,0,0,0-.66.594Z" transform="translate(-126.169 -315.381)" fill="#3f3d56"/>
    </g>
    <g id="Group_22" data-name="Group 22" transform="translate(63.972 26.629)">
      <path id="uuid-d0b76542-8f08-4363-846d-0cc3b89caf22" d="M201.863,99.314c2.412-1.795,5.4-2.129,6.664-.746s.341,3.957-2.073,5.752a8.189,8.189,0,0,1-3.3,1.5L192.823,113.3l-3.8-4.438,10.584-6.91a7.2,7.2,0,0,1,2.255-2.64h0Z" transform="translate(-137.89 -75.549)" fill="#a0616a"/>
      <path id="Path_102" data-name="Path 102" d="M104.553,121.728a6.481,6.481,0,0,1,2.373-5.045c2.728-2.1,6.578-1.248,7.928-.951,3.119.688,3.375,1.892,6.3,3.13,5.48,2.316-1.386,1.13,1.875.388,1.129-.257,17.367-1.271,21.409-3.511,7.861-4.356,13.217-7,13.217-7l3.5,6.305a59.331,59.331,0,0,1-12.189,11.034c-7.31,4.817-10.965,7.225-16.519,8.156-.478.08-12.242,1.889-21.717-4.485-2.161-1.454-6.121-4.117-6.183-8.025h0Z" transform="translate(-100.269 -81.069)" fill="#e6e6e6"/>
      <ellipse id="Ellipse_14" data-name="Ellipse 14" cx="12.198" cy="10.982" rx="12.198" ry="10.982" transform="translate(2.947 2.659)" fill="#a0616a"/>
      <g id="Group_19" data-name="Group 19" transform="translate(23.155 51.08)">
        <path id="Path_103" data-name="Path 103" d="M281.081,216.791l-12.562-11.578-6.484,6.09,9.359,11.1,9.284.956Z" transform="translate(-193.562 -180.447)" fill="#a0616a"/>
        <path id="Path_104" data-name="Path 104" d="M154.368,170.251a9.431,9.431,0,0,0,5.3-.629,6.928,6.928,0,0,0,2.568-2.233c3.273-4.426,15.836-11.328,27.111-11.752a11.833,11.833,0,0,1,5.761.887c2.166,1.017,3.031,2.473,5.779,5.884,1.5,1.866,3.167,3.624,4.689,5.478,8.909,10.854,12.286,11.706,11.941,15.186-.383,3.861-5.008,7.524-8.082,7.1-1.259-.173-1.746-.961-3.428-2.557-4.931-4.678-6.972-3.814-10.482-7.4-4.1-4.183-3.562-7.652-5.7-7.786-1.983-.124-2.826,2.835-7.06,6.765-1.937,1.8-3.317,2.624-7.52,5.249-16.368,10.223-16.629,10.942-19.932,11.757-1.445.357-11.7,2.889-15.357-1.141-5.718-6.305,7.79-25.308,14.411-24.813h0Z" transform="translate(-138.579 -155.617)" fill="#2f2e41"/>
        <path id="Path_105" data-name="Path 105" d="M279.851,228.755c.924-.374,2-.81,2.352-1.815a2.218,2.218,0,0,0-.386-2.1c-.561-.668-1.391-.756-1.357-.874.051-.18,2.014-.11,4.169.576a17.3,17.3,0,0,1,4.592,2.383c1.878,1.32,1.625,1.584,2.8,2.345,3.614,2.336,7,.495,8.96,2.686a3.21,3.21,0,0,1,.759,3.016c-.638,1.949-3.74,2.62-5.435,2.966-4.083.834-7.173.153-10.4-.336-10.974-1.665-17.14-.149-17.966-2.438-.156-.433.1-.4.944-3.576.835-3.138.808-4,1.519-4.251,1.071-.378,1.79,1.342,4.487,1.931a8.4,8.4,0,0,0,4.961-.518Z" transform="translate(-196.173 -189.794)" fill="#2f2e41"/>
      </g>
      <g id="Group_20" data-name="Group 20" transform="translate(15.108 70.182)">
        <path id="Path_106" data-name="Path 106" d="M246.2,288.271l-3.174-15.931-9.164,1.761.821,13.917,7.085,5.484Z" transform="translate(-172.967 -233.154)" fill="#a0616a"/>
        <path id="Path_107" data-name="Path 107" d="M151.49,194.756a8.89,8.89,0,0,0,4.779,2.16,7.948,7.948,0,0,0,3.518-.549c5.469-2.007,20.169-1.367,29.763,3.982a10.347,10.347,0,0,1,4.214,3.647c1.158,1.936.966,3.578,1.112,7.791.08,2.3.361,4.6.463,6.9.6,13.485,2.865,15.9.409,18.6-2.725,3-8.836,3.694-11.116,1.79-.934-.78-.845-1.678-1.242-3.849-1.163-6.364-3.39-6.68-4.061-11.42-.783-5.534,1.825-8.133.139-9.325-1.564-1.105-4.106.917-10.061,2.029-2.725.509-4.381.494-9.5.541-19.92.184-20.584.647-23.826-.349-1.418-.435-11.485-3.526-12-8.708-.8-8.108,22.231-17,27.4-13.246h0Z" transform="translate(-124.069 -193.869)" fill="#2f2e41"/>
        <path id="Path_108" data-name="Path 108" d="M236.261,298.708a4.055,4.055,0,0,0,3.078-.312,2.324,2.324,0,0,0,.988-1.93c-.047-.836-.679-1.329-.578-1.41.155-.123,1.735.928,3.09,2.585a14.517,14.517,0,0,1,2.314,4.293c.731,2.041.356,2.133.856,3.357,1.534,3.76,5.487,3.951,5.739,6.752a3.3,3.3,0,0,1-1.253,2.88c-1.743,1.29-4.729.277-6.347-.293-3.9-1.374-6.031-3.5-8.4-5.537-8.042-6.926-14.09-8.789-13.345-11.1.141-.437.328-.279,3.011-2.482,2.648-2.174,3.163-2.9,3.908-2.749,1.122.228.644,2.015,2.508,3.866a8,8,0,0,0,4.428,2.08Z" transform="translate(-167.837 -243.369)" fill="#2f2e41"/>
      </g>
      <path id="Path_109" data-name="Path 109" d="M114.578,69.066c.475-1.529-.122-2.087.486-2.773a8.345,8.345,0,0,1,2.432-1.022h0c-.645-3.371-.162-3.941-.162-3.941a2.936,2.936,0,0,1,2.432-.73c1.606.182,1.89,1.489,2.918,1.46,1.42-.041,3.122-2.6,2.594-4.817-.431-1.809-2.29-3.152-2.756-2.919s-2.125-.788-2.756-.584c-.431.139-2.458-.046-2.918.146-.5.21-1.94,1.515-2.077,1.351-.955-1.143-.935-1.542-1.489-1.789-.982-.437-2.05.37-3.891,1.168-3.788,1.64-4.9.662-6.647,2.043-.884.7-1.358,2.032-2.27,4.671-1.275,3.691-1.913,5.536-1.3,7.3.628,1.8,1.553,1.406,2.918,3.941,1.52,2.822,1,4.462,2.432,5.109a3.279,3.279,0,0,0,3.567-.73c1.153-1.56-1.827-3.671-.811-6.13.624-1.51,2.548-2.654,3.729-2.335,1.334.36,1.433,2.515,2.27,2.481.717-.029,1.214-1.631,1.3-1.9h0Z" transform="translate(-97.77 -53.326)" fill="#2f2e41"/>
      <path id="Path_110" data-name="Path 110" d="M104.621,104.9c2.5-2.52,12.663.088,13.618,4.087.393,1.645-1.057,2.339-.648,4.233.6,2.77,3.976,2.581,6.485,5.4,3.561,4-.108,7.916,3.891,14.6a11.973,11.973,0,0,0,3.08,3.795c3.455,2.672,6.671,1.756,8.43,4.233a5.863,5.863,0,0,1,.648,4.671c-.519,2.193-1.926,2.728-2.918,4.525-1.65,2.99.218,5.185.324,8.758.133,4.47-2.505,10.666-7.782,12.7-5.927,2.284-13.076-1.5-16.536-5.255-2.064-2.241-2.663-4.308-3.567-6.86-4.036-11.4-6.316-10.373-9.4-19.413-3.528-10.334-4.222-22.442,0-26.273a11.141,11.141,0,0,0,3.08-3.795c1.319-2.844.18-4.273,1.3-5.4h0Z" transform="translate(-97.053 -78.647)" fill="#e6e6e6"/>
      <g id="Group_21" data-name="Group 21" transform="translate(0 35.699)">
        <path id="uuid-35da8825-ceb1-46f8-a8e3-884fcc945dd4" d="M164.673,212c1.935,2.214,2.235,4.907.67,6.016s-4.4.213-6.338-2a6.771,6.771,0,0,1-1.582-3.01l-8.068-9.473,4.169-2.863,8.27,9.24A7.735,7.735,0,0,1,164.673,212h0Z" transform="translate(-120.223 -162.788)" fill="#a0616a"/>
        <path id="Path_111" data-name="Path 111" d="M111.731,124.969a8.324,8.324,0,0,1,5.97,1.062c2.837,1.977,2.7,5.543,2.651,6.794-.111,2.889-1.369,3.361-2.117,6.2-1.4,5.3,1.266,10.231,2.739,12.953a28.349,28.349,0,0,0,5.408,6.932,67.269,67.269,0,0,0,12,9.218l-6.078,4.864s-9.681-2.657-16.241-7.979c-6.729-5.46-17.077-24.778-19.222-29.484-.185-.405,2.432,6.183,7.429-3.468,1.14-2.2,3.228-6.235,7.464-7.087h0Z" transform="translate(-96.83 -124.815)" fill="#e6e6e6"/>
      </g>
    </g>
    <g id="Group_24" data-name="Group 24" transform="translate(124.865 166.292)">
      <path id="uuid-ba1531a6-e7ab-4297-b996-1d676f43fe3f" d="M268.85,419.906c-3.863.533-6.689,2.76-6.312,4.973s3.814,3.575,7.679,3.041a10.426,10.426,0,0,0,4.3-1.531l16.336-2.445-1.09-5.814-16.3,2.077a10.819,10.819,0,0,0-4.609-.3Z" transform="translate(-221.343 -375.624)" fill="#ffb6b6"/>
      <path id="Path_112" data-name="Path 112" d="M348.463,384.808l-6.334,12.1-31.844,9.652-26.424,1.269-.662-5.714,28.637-5.391,29.386-12.5Z" transform="translate(-230.56 -358.648)" fill="#e6e6e6"/>
      <path id="Path_113" data-name="Path 113" d="M284.5,472.282l-5.687,12.951-7.359-4.518,4.349-13.554Z" transform="translate(-225.329 -400.171)" fill="#ffb6b6"/>
      <path id="Path_114" data-name="Path 114" d="M240.064,467.765,225.01,480.716l6.021,5.723L246.42,475.6Z" transform="translate(-204.645 -400.473)" fill="#ffb6b6"/>
      <path id="Path_115" data-name="Path 115" d="M392.526,375.472l-.168-1.054-3.847-6.777L375.8,370.653l2.342,9.337Z" transform="translate(-271.801 -350.347)" fill="#ffb6b6"/>
      <path id="Path_116" data-name="Path 116" d="M343.387,447.039l.391,4.524s1.616,18.969-11.431,20.475-18.734,3.012-26.428-8.735l-12.043-19.276-7.034,7.536-9.358-6.632s6.691-23.493,12.043-24.4a13.523,13.523,0,0,1,2-.182,14.345,14.345,0,0,1,11.26,5.066l15.179,18.308,5.52-2.259,19.9,5.572h0Z" transform="translate(-228.015 -376.735)" fill="#2f2e41"/>
      <path id="Path_117" data-name="Path 117" d="M252.852,497.012l3.011-5.12,8.7,5.421s2.007,6.626-1,7.53-11.374-.3-11.374-.3-15.388,3.012-15.723.3,7.025-3.313,7.025-3.313l9.367-4.518h0Z" transform="translate(-209.739 -412.551)" fill="#2f2e41"/>
      <path id="Path_118" data-name="Path 118" d="M290.481,460.785l-23.25-13.19-11.876,9.575-8.029-8.433s14.719-19.578,19.068-20.481,11.374-1.506,11.374-1.506l21.41,17.77-8.7,16.264Z" transform="translate(-214.584 -379.939)" fill="#2f2e41"/>
      <path id="Path_119" data-name="Path 119" d="M208.322,491.288l7.694,7.53L215,499.6s-2,7.827-6.68,5.18-5.018-3.25-5.018-3.25-13.381,2.711-14.719-2.108,2.342-3.915,2.342-3.915l3.341,1.807,14.054-6.024h0Z" transform="translate(-188.292 -412.249)" fill="#2f2e41"/>
      <ellipse id="Ellipse_15" data-name="Ellipse 15" cx="10.705" cy="9.638" rx="10.705" ry="9.638" transform="translate(97.308 4.343)" fill="#ffb6b6"/>
      <path id="Path_120" data-name="Path 120" d="M368.1,384.223l15.388-4.217s6.022,12.65,5.018,18.373-10.147,32.987-10.147,32.987l-20.3-10.1s-.335-6.024-1.338-8.735-4.182-10.994,2.844-17.921,8.531-10.391,8.531-10.391h0Z" transform="translate(-262.599 -356.537)" fill="#e6e6e6"/>
      <g id="Group_23" data-name="Group 23" transform="translate(69.39 33.762)">
        <path id="uuid-375aaccb-22f9-42b6-a352-baabb12db8d2" d="M315.645,501.279c-2.5,2.7-2.986,6.054-1.077,7.489s5.487.408,7.992-2.295a8.52,8.52,0,0,0,2.1-3.707L335.107,491.2l-5.091-3.709-10.694,11.268a9.742,9.742,0,0,0-3.677,2.52h0Z" transform="translate(-313.4 -444.11)" fill="#ffb6b6"/>
        <path id="Path_121" data-name="Path 121" d="M369.1,400.619l3.637,12.971-17.8,25.657L336.76,455.692l-5.891-4.4L349.2,430.759,363.09,404.3Z" transform="translate(-321.18 -400.619)" fill="#e6e6e6"/>
      </g>
      <path id="Path_122" data-name="Path 122" d="M363.737,345.333c2.745-.006,2.9.011,3.345,0,3.405-.081,4.3-1.287,6.022-1.2,3.081.147-.985,14.052-2.676,20.481-1.658,6.3,3.946,11.955,4.349,12.349,5.689,5.57,15.681,6.589,17.4,4.217,1.388-1.92-3.531-4.839-2.342-9.036,1.162-4.1,6.529-3.665,8.029-7.53,1.571-4.047-3.708-6.088-7.025-15.963-1.9-5.671-1.568-6.728-3.345-10.241-4.751-9.389-28.039-5.391-25.424,3.313.506,1.684-.84,3.62,1.673,3.614h0Z" transform="translate(-265.593 -333.008)" fill="#2f2e41"/>
    </g>
    <g id="Group_25" data-name="Group 25" transform="translate(140.482)">
      <path id="Path_123" data-name="Path 123" d="M331.9,64.2H219.393a5.512,5.512,0,0,1-5.77-5.2V5.2a5.512,5.512,0,0,1,5.77-5.2H331.9a5.512,5.512,0,0,1,5.77,5.2V59a5.512,5.512,0,0,1-5.77,5.2Z" transform="translate(-213.622)" fill="#fff"/>
      <path id="Path_124" data-name="Path 124" d="M331.9,64.2H219.393a5.512,5.512,0,0,1-5.77-5.2V5.2a5.512,5.512,0,0,1,5.77-5.2H331.9a5.512,5.512,0,0,1,5.77,5.2V59a5.512,5.512,0,0,1-5.77,5.2ZM219.393.868A4.591,4.591,0,0,0,214.586,5.2V59a4.591,4.591,0,0,0,4.807,4.328H331.9A4.591,4.591,0,0,0,336.707,59V5.2A4.591,4.591,0,0,0,331.9.868H219.393Z" transform="translate(-213.622)" fill="#3f3d56"/>
      <ellipse id="Ellipse_16" data-name="Ellipse 16" cx="1.445" cy="1.301" rx="1.445" ry="1.301" transform="translate(108.149 3.904)" fill="#3f3d56"/>
      <ellipse id="Ellipse_17" data-name="Ellipse 17" cx="1.445" cy="1.301" rx="1.445" ry="1.301" transform="translate(112.003 3.904)" fill="#3f3d56"/>
      <ellipse id="Ellipse_18" data-name="Ellipse 18" cx="1.445" cy="1.301" rx="1.445" ry="1.301" transform="translate(115.858 3.904)" fill="#3f3d56"/>
      <path id="Path_125" data-name="Path 125" d="M227.809,52.554a.69.69,0,0,0-.723.651.6.6,0,0,0,.211.456.746.746,0,0,0,.511.194H335.958a.69.69,0,0,0,.723-.651.6.6,0,0,0-.211-.456.746.746,0,0,0-.511-.194Z" transform="translate(-219.619 -26.31)" fill="#e6e6e6"/>
      <path id="Path_126" data-name="Path 126" d="M322.275,52.119v1.735H227.615a1,1,0,0,1-.679-.256.809.809,0,0,1-.284-.612.922.922,0,0,1,.964-.868h94.659Z" transform="translate(-219.425 -26.093)" fill="#6c63ff"/>
      <path id="Path_127" data-name="Path 127" d="M411.925,42.125h-9.636a1.745,1.745,0,1,1,0-3.47h9.636a1.745,1.745,0,1,1,0,3.47Z" transform="translate(-296.79 -19.352)" fill="#e6e6e6"/>
      <path id="Path_128" data-name="Path 128" d="M271.253,23.884H228.145a1.745,1.745,0,1,1,0-3.47h43.108a1.745,1.745,0,1,1,0,3.47Z" transform="translate(-219.232 -10.22)" fill="#e6e6e6"/>
      <path id="Path_129" data-name="Path 129" d="M227.809,91.643a.69.69,0,0,0-.723.651.6.6,0,0,0,.211.456.746.746,0,0,0,.511.194H335.958a.69.69,0,0,0,.723-.651.6.6,0,0,0-.211-.456.746.746,0,0,0-.511-.194Z" transform="translate(-219.619 -45.88)" fill="#e6e6e6"/>
      <path id="Path_130" data-name="Path 130" d="M285.178,91.209v1.735H227.616a1,1,0,0,1-.679-.256.809.809,0,0,1-.284-.612.922.922,0,0,1,.964-.868Z" transform="translate(-219.426 -45.663)" fill="#6c63ff"/>
      <path id="Path_131" data-name="Path 131" d="M411.925,81.215h-9.636a1.745,1.745,0,1,1,0-3.47h9.636a1.745,1.745,0,1,1,0,3.47Z" transform="translate(-296.79 -38.922)" fill="#e6e6e6"/>
    </g>
  </g>
</svg>
