<svg xmlns="http://www.w3.org/2000/svg" width="276.238" height="235.743" viewBox="0 0 276.238 235.743">
  <g id="login" transform="translate(-119.916 -55.223)">
    <g id="Group_28" data-name="Group 28" transform="translate(7.394 13.192)">
      <circle id="Ellipse_24" data-name="Ellipse 24" cx="24.301" cy="24.301" r="24.301" transform="translate(340.158 42.031)" fill="#ff6584"/>
      <path id="Path_188" data-name="Path 188" d="M356.73,306.863H166.082a13.789,13.789,0,0,1-13.773-13.773V148.977A13.789,13.789,0,0,1,166.082,135.2H356.73A13.789,13.789,0,0,1,370.5,148.977V293.09a13.789,13.789,0,0,1-13.773,13.773ZM166.082,136.238a12.753,12.753,0,0,0-12.739,12.739V293.09a12.753,12.753,0,0,0,12.739,12.739H356.73a12.753,12.753,0,0,0,12.739-12.739V148.977a12.753,12.753,0,0,0-12.739-12.739H166.082Z" transform="translate(-34.605 -59.489)" fill="#3f3d56"/>
      <g id="Group_26" data-name="Group 26" transform="translate(147.06 227.282)">
        <ellipse id="Ellipse_25" data-name="Ellipse 25" cx="3.907" cy="0.634" rx="3.907" ry="0.634" transform="translate(23.816 8.931) rotate(-1.469)" fill="#e6e6e6"/>
        <ellipse id="Ellipse_26" data-name="Ellipse 26" cx="3.907" cy="0.634" rx="3.907" ry="0.634" transform="translate(48.573 6.869) rotate(-1.469)" fill="#3f3d56"/>
        <ellipse id="Ellipse_27" data-name="Ellipse 27" cx="3.907" cy="0.634" rx="3.907" ry="0.634" transform="translate(13.851 4.667) rotate(-1.469)" fill="#ff6584"/>
        <ellipse id="Ellipse_28" data-name="Ellipse 28" cx="0.57" cy="1.736" rx="0.57" ry="1.736" transform="matrix(0.011, -1, 1, 0.011, 6.056, 4.485)" fill="#e6e6e6"/>
        <ellipse id="Ellipse_29" data-name="Ellipse 29" cx="0.57" cy="1.736" rx="0.57" ry="1.736" transform="matrix(0.011, -1, 1, 0.011, 0, 1.14)" fill="#3f3d56"/>
        <ellipse id="Ellipse_30" data-name="Ellipse 30" cx="0.57" cy="1.736" rx="0.57" ry="1.736" transform="matrix(0.011, -1, 1, 0.011, 32.937, 5.698)" fill="#e6e6e6"/>
        <ellipse id="Ellipse_31" data-name="Ellipse 31" cx="0.57" cy="1.736" rx="0.57" ry="1.736" transform="matrix(0.011, -1, 1, 0.011, 21.712, 7.816)" fill="#ff6584"/>
        <ellipse id="Ellipse_32" data-name="Ellipse 32" cx="0.57" cy="1.736" rx="0.57" ry="1.736" transform="matrix(0.011, -1, 1, 0.011, 40.315, 9.382)" fill="#3f3d56"/>
      </g>
      <g id="Group_27" data-name="Group 27" transform="translate(247.314 226.248)">
        <ellipse id="Ellipse_33" data-name="Ellipse 33" cx="3.907" cy="0.634" rx="3.907" ry="0.634" transform="translate(23.816 8.931) rotate(-1.469)" fill="#e6e6e6"/>
        <ellipse id="Ellipse_34" data-name="Ellipse 34" cx="3.907" cy="0.634" rx="3.907" ry="0.634" transform="translate(48.573 6.87) rotate(-1.469)" fill="#3f3d56"/>
        <ellipse id="Ellipse_35" data-name="Ellipse 35" cx="3.907" cy="0.634" rx="3.907" ry="0.634" transform="translate(13.851 4.668) rotate(-1.469)" fill="#ff6584"/>
        <ellipse id="Ellipse_36" data-name="Ellipse 36" cx="0.57" cy="1.736" rx="0.57" ry="1.736" transform="matrix(0.011, -1, 1, 0.011, 6.056, 4.485)" fill="#e6e6e6"/>
        <ellipse id="Ellipse_37" data-name="Ellipse 37" cx="0.57" cy="1.736" rx="0.57" ry="1.736" transform="matrix(0.011, -1, 1, 0.011, 0, 1.14)" fill="#3f3d56"/>
        <ellipse id="Ellipse_38" data-name="Ellipse 38" cx="0.57" cy="1.736" rx="0.57" ry="1.736" transform="matrix(0.011, -1, 1, 0.011, 32.937, 5.698)" fill="#e6e6e6"/>
        <ellipse id="Ellipse_39" data-name="Ellipse 39" cx="0.57" cy="1.736" rx="0.57" ry="1.736" transform="matrix(0.011, -1, 1, 0.011, 21.712, 7.816)" fill="#ff6584"/>
        <ellipse id="Ellipse_40" data-name="Ellipse 40" cx="0.57" cy="1.736" rx="0.57" ry="1.736" transform="matrix(0.011, -1, 1, 0.011, 40.315, 9.382)" fill="#3f3d56"/>
      </g>
      <path id="Path_189" data-name="Path 189" d="M221.042,340.739a1.452,1.452,0,0,1-1.052-2.516l.1-.4-.04-.095a3.9,3.9,0,0,0-7.19.027c-1.176,2.832-2.673,5.67-3.042,8.664a11.531,11.531,0,0,0,.2,3.966,46.234,46.234,0,0,1-4.206-19.2,44.624,44.624,0,0,1,.277-4.978q.229-2.033.636-4.036A46.77,46.77,0,0,1,216,302.351a12.447,12.447,0,0,0,5.177-5.371,9.494,9.494,0,0,0,.863-2.594c-.252.033-.95-3.8-.76-4.04-.351-.533-.98-.8-1.363-1.318-1.908-2.586-4.536-2.135-5.908,1.38-2.931,1.479-2.959,3.932-1.161,6.292,1.144,1.5,1.3,3.532,2.305,5.139-.1.132-.211.26-.314.393a47.072,47.072,0,0,0-4.913,7.783,19.568,19.568,0,0,0-1.168-9.089c-1.118-2.7-3.214-4.969-5.06-7.3a4.016,4.016,0,0,0-7.154,1.972l-.011.1q.411.232.805.492a1.969,1.969,0,0,1-.794,3.583l-.04.006a19.589,19.589,0,0,0,.516,2.929c-2.368,9.157,2.744,12.492,10.043,12.642.161.083.318.165.479.244a48.045,48.045,0,0,0-2.586,12.171,45.57,45.57,0,0,0,.033,7.358l-.012-.087a12.042,12.042,0,0,0-4.111-6.953c-3.163-2.6-7.633-3.556-11.045-5.644a2.26,2.26,0,0,0-3.461,2.2l.014.091a13.224,13.224,0,0,1,1.483.715q.411.232.805.492a1.969,1.969,0,0,1-.794,3.583l-.04.006-.083.012a19.608,19.608,0,0,0,3.607,5.648c1.481,7.994,7.839,8.752,14.641,6.424h0a48.032,48.032,0,0,0,3.227,9.419h11.526c.041-.128.079-.26.116-.388a13.1,13.1,0,0,1-3.189-.19c.855-1.049,1.71-2.107,2.566-3.156a.713.713,0,0,0,.054-.062c.434-.537.872-1.07,1.305-1.607h0a19.182,19.182,0,0,0-.562-4.887h0Z" transform="translate(-73.814 -137.514)" fill="#6495ed"/>
      <path id="Path_190" data-name="Path 190" d="M472,340.739a1.452,1.452,0,0,0,1.052-2.516l-.1-.4.04-.095a3.9,3.9,0,0,1,7.19.027c1.176,2.832,2.673,5.67,3.042,8.664a11.533,11.533,0,0,1-.2,3.966,46.234,46.234,0,0,0,4.206-19.2,44.628,44.628,0,0,0-.277-4.978q-.229-2.033-.636-4.036a46.77,46.77,0,0,0-9.275-19.822,12.447,12.447,0,0,1-5.177-5.371,9.494,9.494,0,0,1-.863-2.594c.252.033.95-3.8.76-4.04.351-.533.98-.8,1.363-1.318,1.908-2.586,4.536-2.135,5.908,1.38,2.931,1.479,2.959,3.932,1.161,6.292-1.144,1.5-1.3,3.532-2.305,5.139.1.132.211.26.314.393a47.072,47.072,0,0,1,4.913,7.783,19.568,19.568,0,0,1,1.168-9.089c1.118-2.7,3.214-4.969,5.06-7.3A4.016,4.016,0,0,1,496.5,295.6l.011.1q-.411.232-.805.492a1.969,1.969,0,0,0,.794,3.583l.04.006a19.589,19.589,0,0,1-.516,2.929c2.368,9.157-2.744,12.492-10.043,12.642-.161.083-.318.165-.479.244a48.045,48.045,0,0,1,2.586,12.171,45.572,45.572,0,0,1-.033,7.358l.012-.087a12.042,12.042,0,0,1,4.111-6.953c3.163-2.6,7.633-3.556,11.045-5.644a2.26,2.26,0,0,1,3.461,2.2l-.014.091a13.225,13.225,0,0,0-1.483.715q-.411.232-.805.492a1.969,1.969,0,0,0,.794,3.583l.04.006.083.012a19.607,19.607,0,0,1-3.607,5.648c-1.481,7.994-7.839,8.752-14.641,6.424h0a48.032,48.032,0,0,1-3.227,9.419H472.293c-.041-.128-.078-.26-.116-.388a13.1,13.1,0,0,0,3.189-.19c-.855-1.049-1.71-2.107-2.566-3.156a.71.71,0,0,1-.054-.062c-.434-.537-.872-1.07-1.305-1.607h0a19.183,19.183,0,0,1,.562-4.887h0Z" transform="translate(-172.291 -137.514)" fill="#6495ed"/>
    </g>
    <path id="Path_195" data-name="Path 195" d="M389.52,246.531l-1.58-24.476a3.959,3.959,0,0,0-4.154-3.687h0a3.959,3.959,0,0,0-3.733,4.367l2.421,25.374.821,15.48a3.455,3.455,0,1,0,4.3,1.071l1.923-18.13Z" transform="translate(-137.523 -95.763)" fill="#ffb6b6"/>
    <path id="Path_196" data-name="Path 196" d="M387.747,241.456h0a1.167,1.167,0,0,0,.128-1.409,1.514,1.514,0,0,1-.212-.9c.005-.061.015-14.6.028-14.658a2.284,2.284,0,0,0-.492-2.054,7.225,7.225,0,0,1-1.438-3.543,17.224,17.224,0,0,0-.929-4.037c-.789-1.835-2.573-3.432-4.9-2.553a4.6,4.6,0,0,0-2.319,2.028c-1.107,1.914-1.038,4.178-.951,6.343l-.453-.84a17.578,17.578,0,0,1-1.008,6.957c.521-.121.918,15.048.766,15.561a3.074,3.074,0,0,1-1,1.23c-.49.463-.945,1.14-.445,1.8a1.439,1.439,0,0,0,1.021.537,27.2,27.2,0,0,0,11.062-1.253,3.319,3.319,0,0,0,2.026-1.352c.39-.736-.055-1.9-.887-1.858Z" transform="translate(-134.796 -93.697)" fill="#6495ed"/>
    <g id="Group_30" data-name="Group 30" transform="translate(199.934 235.571)">
      <path id="Path_197" data-name="Path 197" d="M322.959,432.72l-3.515,1.377-7.1-13.2,5.187-2.033Z" transform="translate(-312.341 -418.862)" fill="#ffb6b6"/>
      <path id="Path_198" data-name="Path 198" d="M315.394,453.885a1.69,1.69,0,0,0,2.187.956l6.988-2.739.227-2.961,1.445,2.3,2.637-1.032-4.222-8.593-.939.306-3.832,1.241-1.235.4.986,2.515-4.07,6.041a1.687,1.687,0,0,0-.171,1.558Z" transform="translate(-313.759 -429.95)" fill="#2f2e41"/>
    </g>
    <g id="Group_31" data-name="Group 31" transform="translate(242.564 268.079)">
      <path id="Path_199" data-name="Path 199" d="M396.753,496.617l-3.774.078-2.1-14.844,5.57-.116Z" transform="translate(-384.842 -481.735)" fill="#ffb6b6"/>
      <path id="Path_200" data-name="Path 200" d="M379.207,514.987a1.69,1.69,0,0,0,1.722,1.653l7.5-.156,1.236-2.7.56,2.662,2.831-.057-.993-9.522-.987-.037-4.025-.16-1.3-.049.056,2.7-5.907,4.263A1.687,1.687,0,0,0,379.207,514.987Z" transform="translate(-379.206 -493.754)" fill="#2f2e41"/>
    </g>
    <path id="Path_201" data-name="Path 201" d="M314.641,272.273l24.822,4.335-.934,4.671s1.557,1.959.934,2.692-1.868-.512-.623.733,1.645,1.581-.224,3.449,1.143-1.117,1.143-1.117.143,3.438.867,4.516c5.009,7.464,3.664,14.139,1.1,22.755-1.449,4.875,1.538,14.274,1.538,15.992l-.292,12.031s6.539,26.466,3.114,38.921l.484,4.791-7.957.191-9.341-37.364a26.508,26.508,0,0,1-1.51-5.142c-.047-1.4-.047-.152-.047-1.4a24.145,24.145,0,0,0-.311-2.8c0-.311-2.491-30.759-2.491-30.759s-9.137,5.041-10.071,5.975-2.6.079-2.585,1.034-.857,1.3-1.551,2.068-1.838-.78-1.215,1.4-8.267,5.493-9.2,6.427,7.314,7.684,6.28,20.611l-.517,5.17-6.722,3.1-14.355-26.743a9.091,9.091,0,0,1,1.3-9.681l20.295-24.07s2.464-11.826,4.644-13.071l3.425-8.718Z" transform="translate(-96.595 -112.495)" fill="#2f2e41"/>
    <path id="Path_202" data-name="Path 202" d="M359.391,233.554c.218-.931-1.582-7.333-.816-9.6.5-1.482,1.706-2.575,1.691-4.34a2.784,2.784,0,0,0-.022-.355c-.006-.063-.019-.127-.029-.191,1.559-5.55,2.338-15.87,2.338-15.87l-7.457-8.893c0-.038-.011-.076-.015-.115-.153-1.314-1.26-.36-2.474-1.052-.542-.305-.259-2.8-.885-2.629-.022.006-.041.015-.062.021l-.02-.021-1.23-1.323-6.767-.623-1.572,2.145v.015c-1.34.248-1.684.4-1.888,1.881-.037.28-.062.56-.072.844-.046,1.06-5.586,2.123-5.332,3.13L332.96,197.8s-6.835,8.52-4.344,11.011a7.219,7.219,0,0,1,1.644,4.228c.007.058.019.11.029.164-.285.917-.683,2.473-.032,2.809,1.159.6,3.656,18,1.018,19.239-6.249,2.941,10.515,8.734,17.184,9.086a20.284,20.284,0,0,0,6.156-.532l6.265.529-.517-3.1c4.49-.383-1.2-6.709-.972-7.674Z" transform="translate(-115.653 -82.541)" fill="#6495ed"/>
    <g id="Group_32" data-name="Group 32" transform="translate(175.081 73.268)">
      <path id="Path_203" data-name="Path 203" d="M278.082,158.4l18.27,15.725a4.065,4.065,0,0,0,5.647.8h0a4.065,4.065,0,0,0,.716-5.855l-19.5-16.016-6.455-17.1a3.547,3.547,0,1,0-4.289,1.525l5.611,20.928Z" transform="translate(-270.161 -130.609)" fill="#ffb6b6"/>
      <path id="Path_204" data-name="Path 204" d="M284.3,180.842h0c-.094.535,12.094,10.349,12.582,10.585a1.555,1.555,0,0,1,.692.649,1.427,1.427,0,0,1,.078.171,2.345,2.345,0,0,0,1.587,1.478,7.418,7.418,0,0,1,3.241,2.216,17.683,17.683,0,0,0,3.085,2.928c1.716,1.123,4.149,1.477,5.64-.595a4.721,4.721,0,0,0,.834-3.051c-.139-2.266-1.483-4.164-2.785-5.968l.865.462c-1.453-1.938-4.176-2.433-4.751-4.786-.377.4-1.109.032-1.271-.493s-11.861-10.39-11.737-10.925c.157-.674.161-1.511-.642-1.795a1.478,1.478,0,0,0-1.178.12c-3.384,1.811-4.719,2.592-7.089,5.61a3.408,3.408,0,0,0-.967,2.306c.084.851,1.125,1.594,1.814,1.087Z" transform="translate(-276.11 -150.428)" fill="#6495ed"/>
    </g>
    <circle id="Ellipse_44" data-name="Ellipse 44" cx="10.709" cy="10.709" r="10.709" transform="translate(218.966 82.422)" fill="#ffb6b6"/>
    <g id="Group_33" data-name="Group 33" transform="translate(216.667 78.616)">
      <path id="Path_210" data-name="Path 210" d="M361.051,152.022c1.5-5.461-14.828-10.145-18-5.747a3.461,3.461,0,0,0-2.82-.813,5.834,5.834,0,0,0-1.991,1.136A7.864,7.864,0,0,0,336,148.85a2.676,2.676,0,0,0,.1,3c.556.641,1.534,4.045,2.37,4.214.583.119,1.074.215,1.5.284.376-.549,1.335-1.238,1.266-1.9.568.376.36,1.037.246,1.713-.381,2.251-8.969,19.676-4.05,14.541a10.306,10.306,0,0,0,1.784.8,22.43,22.43,0,0,0,2.781-6.061l0,.04a4.779,4.779,0,0,0,3.451,4c7.383,2.139,13.355-1,15.41-6.66-.752-1.527-1.08-1.361-1.012-1.406a1.768,1.768,0,0,1,2.633.839c.119.312.227.578.321.779,1.07-3.829,2.343-3.276-1.75-11.01Z" transform="translate(-335.594 -142.742)" fill="#2f2e41"/>
      <path id="Path_211" data-name="Path 211" d="M374.211,146.386l-.754-3.856a1.538,1.538,0,0,1,.023-.972,1.043,1.043,0,0,1,1.09-.478c.42.061.734.444,1.152.518,1.453.257,3.373-1.178,3.894,2.452.217,1.514,2.632,1.673,3.439,2.972a3.484,3.484,0,0,1-.2,4.235,3.321,3.321,0,0,1-3.433.512,7.466,7.466,0,0,1-2.859-2.23,25.743,25.743,0,0,0-2.449-2.719" transform="translate(-353.847 -141.068)" fill="#2f2e41"/>
      <path id="Path_212" data-name="Path 212" d="M379.688,155.253c-2.946-.412-4.954-1.483-5.969-3.184a5.976,5.976,0,0,1-.4-4.783l.623.231a5.393,5.393,0,0,0,.351,4.217c.907,1.516,2.753,2.479,5.486,2.861l-.092.658Z" transform="translate(-353.656 -144.071)" fill="#6495ed"/>
    </g>
  </g>
</svg>
