<svg xmlns="http://www.w3.org/2000/svg" width="228" height="265.932" viewBox="0 0 228 265.932">
  <g id="otp" transform="translate(0 0)">
    <path id="Path_235" data-name="Path 235" d="M549.018,231.215H335.564a7.182,7.182,0,0,1-7.174-7.174V140.373a7.182,7.182,0,0,1,7.174-7.174H549.018a7.182,7.182,0,0,1,7.174,7.174v83.668a7.182,7.182,0,0,1-7.174,7.174Z" transform="translate(-328.39 -133.199)" fill="#f2f2f2"/>
    <path id="Path_236" data-name="Path 236" d="M505.563,232.97H375.774a36.521,36.521,0,0,1-36.48-36.48v-15.9a36.521,36.521,0,0,1,36.48-36.48H521.465a36.521,36.521,0,0,1,36.48,36.48,52.44,52.44,0,0,1-52.381,52.381Z" transform="translate(-334.718 -139.531)" fill="#fff"/>
    <path id="Path_237" data-name="Path 237" d="M534.5,196.059H448.709a1.85,1.85,0,1,1,0-3.7H534.5a1.85,1.85,0,1,1,0,3.7Z" transform="translate(-397.136 -167.529)" fill="#e6e6e6"/>
    <path id="Path_238" data-name="Path 238" d="M577.931,243.09H448.709a1.85,1.85,0,1,1,0-3.7H577.931a1.85,1.85,0,1,1,0,3.7Z" transform="translate(-397.136 -194.82)" fill="#e6e6e6"/>
    <path id="Path_239" data-name="Path 239" d="M577.931,290.121H448.709a1.85,1.85,0,1,1,0-3.7H577.931a1.85,1.85,0,1,1,0,3.7Z" transform="translate(-397.136 -222.112)" fill="#e6e6e6"/>
    <path id="Path_240" data-name="Path 240" d="M577.931,290.121H448.709a1.85,1.85,0,1,1,0-3.7H577.931a1.85,1.85,0,1,1,0,3.7Z" transform="translate(-397.136 -222.112)" fill="#e6e6e6"/>
    <path id="Path_241" data-name="Path 241" d="M634.1,248.071a3.815,3.815,0,0,0,4.62,3.587l7.056,11.575,3-6.372-7.161-10.015a3.835,3.835,0,0,0-7.518,1.225Z" transform="translate(-505.786 -197.536)" fill="#ffb6b6"/>
    <path id="Path_242" data-name="Path 242" d="M696.2,293.439,671.887,280.25l-7.669-7.2s-3.334-.893-2.107-1.977-2.27-2.13-2.27-2.13l-4.117-3.863-5.851,4.14,1.693,2.625s-.117,4.345,2.264,3.509,1.785,2.768,1.785,2.768l14.207,22.023Z" transform="translate(-514.942 -209.731)" fill="#3f3d56"/>
    <circle id="Ellipse_49" data-name="Ellipse 49" cx="23.75" cy="23.75" r="23.75" transform="translate(85.735 23.782)" fill="#6495ed"/>
    <path id="Path_243" data-name="Path 243" d="M421.967,585.266h-4.938l-2.35-19.047h7.288Z" transform="translate(-240.632 -328.569)" fill="#ffb6b6"/>
    <path id="Path_244" data-name="Path 244" d="M742.73,748.029h-3.541l-.632-3.344-1.619,3.344h-9.392a2.111,2.111,0,0,1-1.2-3.849l7.5-5.18v-3.38l7.889.471Z" transform="translate(-558.789 -482.775)" fill="#2f2e41"/>
    <path id="Path_245" data-name="Path 245" d="M327.865,585.266h-4.938l-2.35-19.047h7.288Z" transform="translate(-186.026 -328.569)" fill="#ffb6b6"/>
    <path id="Path_246" data-name="Path 246" d="M648.628,748.029h-3.541l-.632-3.344-1.619,3.344h-9.392a2.111,2.111,0,0,1-1.2-3.849l7.5-5.18v-3.38l7.889.471Z" transform="translate(-504.183 -482.775)" fill="#2f2e41"/>
    <rect id="Rectangle_15" data-name="Rectangle 15" width="24.925" height="28.376" transform="translate(151.171 112.643)" fill="#ffb6b6"/>
    <path id="Path_247" data-name="Path 247" d="M643.282,434.927l-4.218,4.985-7.286,15.338L613.42,498.93l-3.882,9.238,3.135,16.33s.507,11.5.507,13.388a7.67,7.67,0,0,0,3.207,5.959l2.353,12.255,22.816-.959s-.8-13.508-5.575-16.916-6.975-21.166-6.975-21.166l-2.6-7.879,25.308-30,.163,10.487.079,5.076s-3.706,33.013.614,39.42.088,5.653.088,5.653l.206,13.216,27.034.192-5.964-38.049s-3.028-2.391-1.408-4.795-1.57-5.347-1.57-5.347l1.431-29.7s-1.585-5.131.279-5.8.245-5.079.245-5.079l.277-5.749-5.56-17.831Z" transform="translate(-491.536 -308.288)" fill="#2f2e41"/>
    <path id="Path_248" data-name="Path 248" d="M705.838,341.673l2.684-8.053,1.917-2.684.767-7.669c0-20.707-4.619-17.259-4.619-17.259l-2.667-7.283-12.271-.383-7.861,7.477-6.519,2.3-2.553,13.264,4.662,14.153,1.15,7.669c-2.194,4.051-2.009,2.135-.192,5.177L702,354.327c7.669,2.684,7.669-4.218,6.131-5.944S705.838,341.673,705.838,341.673Z" transform="translate(-529.359 -229.03)" fill="#3f3d56"/>
    <circle id="Ellipse_50" data-name="Ellipse 50" cx="11.375" cy="11.375" r="11.375" transform="translate(155.466 43.988)" fill="#ffb6b6"/>
    <path id="Path_249" data-name="Path 249" d="M699.506,307.834" transform="translate(-543.743 -234.537)" fill="#2f2e41"/>
    <path id="Path_250" data-name="Path 250" d="M721.565,261.235a1.4,1.4,0,0,1-.778,2.044c-1.526.506-2.466,1.982-3.562,3.164s-2.853,2.155-4.249,1.354-1.488-2.834-2.654-3.938a3.694,3.694,0,0,0-4.356-.127l-.04.025a1.407,1.407,0,0,1-2.152-1.431q.7-3.73,1.4-7.459a25.083,25.083,0,0,1-5.25,7.938,5.774,5.774,0,0,1-2.278,1.6c-.8.253-1.572-.571-2.347-.422,1.925-1.683,8.4-12.474,7.24-19.687l-4.084.46a3.754,3.754,0,0,0-.913-1.722,4.411,4.411,0,0,1-.234,1.852c-.568.065-1.139.127-1.706.192a3.667,3.667,0,0,1-2.328-.249c-1.131-.69-1.166-2.324-.844-3.612a13.3,13.3,0,0,1,7.3-8.52c3.5-1.637,4.536,2.009,8.225.844,7.286-2.3,12.869,1.634,14.836,8.935C724.452,248.6,723.252,255.1,721.565,261.235Z" transform="translate(-539.537 -190.688)" fill="#2f2e41"/>
    <path id="Path_251" data-name="Path 251" d="M812.921,745.267H798.992l-.06-.109c-.178-.323-.35-.665-.511-1.017a38.34,38.34,0,0,1-2.576-9.684l-.4-2.336a1.442,1.442,0,0,1,2.271-1.411q3.175,2.31,6.353,4.616c.8.584,1.718,1.259,2.6,1.989.085-.411.173-.823.262-1.23a1.443,1.443,0,0,1,2.636-.456l1.63,2.618c1.189,1.912,2.238,3.8,2.024,5.828a.321.321,0,0,1-.006.074,4.593,4.593,0,0,1-.237.978Z" transform="translate(-599.402 -479.766)" fill="#f0f0f0"/>
    <path id="Path_252" data-name="Path 252" d="M686.736,765.111l-132.36.129a.5.5,0,1,1,0-1l132.36-.129a.5.5,0,1,1,0,1Z" transform="translate(-459.237 -499.309)" fill="#cacaca"/>
    <path id="Path_253" data-name="Path 253" d="M562.767,295.227l-14.559-12.3a2.462,2.462,0,0,1-.292-3.465l2.68-3.173a2.462,2.462,0,0,1,3.465-.292l14.559,12.3a2.462,2.462,0,0,1,.292,3.465l-2.68,3.173a2.462,2.462,0,0,1-3.465.292Z" transform="translate(-455.442 -215.729)" fill="#3f3d56"/>
    <path id="Path_254" data-name="Path 254" d="M550.8,280.632a1.327,1.327,0,0,0,.157,1.867l14.559,12.3a1.327,1.327,0,0,0,1.867-.157l2.68-3.173a1.327,1.327,0,0,0-.157-1.867l-14.559-12.3a1.327,1.327,0,0,0-1.867.157Z" transform="translate(-457.272 -216.639)" fill="#fff"/>
    <path id="Path_255" data-name="Path 255" d="M567.032,289.432a.56.56,0,0,1-.443.234l-2.288.053a.56.56,0,1,1-.026-1.119l1.5-.034-1.474-3.889a.56.56,0,1,1,1.047-.4l1.754,4.629a.56.56,0,0,1-.059.511Z" transform="translate(-464.954 -220.659)" fill="#6c63ff"/>
    <path id="Path_256" data-name="Path 256" d="M566.189,299.322a3.815,3.815,0,0,1,3.064,4.983l10.739,8.272-6.661,2.292-9.177-8.207a3.835,3.835,0,0,1,2.035-7.34Z" transform="translate(-463.818 -229.572)" fill="#ffb6b6"/>
    <path id="Path_257" data-name="Path 257" d="M631.972,309.129l-27.5,16.905s-11.086-4.1-8.919-6-4.73-3.183-4.73-3.183l-7.619-5.126-4.421,5.138s.806,8.346,2.176,6.9,3.42,2.5,3.42,2.5.605,4.408,4.507,3.3,14.372,10.519,14.372,10.519l33.838-12.62Z" transform="translate(-473.692 -235.289)" fill="#3f3d56"/>
    <path id="Path_258" data-name="Path 258" d="M577.454,242.582a2.053,2.053,0,0,1-1.642-.821l-5.036-6.714a2.053,2.053,0,1,1,3.285-2.464l3.295,4.392,8.462-12.692a2.053,2.053,0,1,1,3.417,2.278l-10.071,15.107a2.054,2.054,0,0,1-1.651.914Z" transform="translate(-468.805 -185.523)" fill="#fff"/>
  </g>
</svg>
