<svg xmlns="http://www.w3.org/2000/svg" width="309.505" height="243" viewBox="0 0 309.505 243">
  <g id="reset_password" transform="translate(0 0)">
    <path id="Path_133" data-name="Path 133" d="M848.238,579.908A92.556,92.556,0,0,1,828.043,596.2c-.171.105-.345.2-.52.306L815.44,585.813c.127-.118.267-.25.419-.4,9-8.549,53.7-68.319,56.674-82.873C872.328,503.756,875.221,551.309,848.238,579.908Z" transform="translate(-566.507 -358.074)" fill="#f0f0f0"/>
    <path id="Path_134" data-name="Path 134" d="M837.038,679.168c-.228.055-.461.106-.694.152l-9.065-8.023c.177-.062.384-.135.621-.217,3.889-1.377,15.473-5.534,27-10.27,12.387-5.09,24.714-10.841,27.365-14.525C881.7,647.142,864.178,673.1,837.038,679.168Z" transform="translate(-573.17 -438.978)" fill="#f0f0f0"/>
    <path id="Path_259" data-name="Path 259" d="M739.253,245.764h-1.291V210.4A20.467,20.467,0,0,0,717.5,189.934H642.574A20.467,20.467,0,0,0,622.107,210.4v194a20.467,20.467,0,0,0,20.467,20.467H717.5a20.467,20.467,0,0,0,20.467-20.467V270.936h1.291Z" transform="translate(-457.69 -182.123)" fill="#3f3d56"/>
    <path id="Path_260" data-name="Path 260" d="M740.878,217.4V411.121A15.281,15.281,0,0,1,725.591,426.4H650.309a15.281,15.281,0,0,1-15.282-15.283V217.4a15.281,15.281,0,0,1,15.283-15.281h9.135a7.265,7.265,0,0,0,6.725,10h42.92a7.257,7.257,0,0,0,6.725-10h9.776A15.281,15.281,0,0,1,740.878,217.4Z" transform="translate(-464.962 -188.98)" fill="#fff"/>
    <path id="Path_261" data-name="Path 261" d="M732.77,453.3H666.6a4.376,4.376,0,0,1-4.372-4.372v-2.176a4.376,4.376,0,0,1,4.372-4.372H732.77a4.376,4.376,0,0,1,4.372,4.372v2.176A4.376,4.376,0,0,1,732.77,453.3Z" transform="translate(-480.272 -324.21)" fill="#f0f0f0"/>
    <path id="Path_262" data-name="Path 262" d="M732.77,496.2H666.6a4.376,4.376,0,0,1-4.372-4.372v-2.176a4.377,4.377,0,0,1,4.372-4.372H732.77a4.376,4.376,0,0,1,4.372,4.372v2.176A4.376,4.376,0,0,1,732.77,496.2Z" transform="translate(-480.272 -348.36)" fill="#f0f0f0"/>
    <path id="Path_263" data-name="Path 263" d="M740.06,443.138H673.89a4.6,4.6,0,0,1-4.59-4.59v-2.176a4.6,4.6,0,0,1,4.59-4.59h66.171a4.6,4.6,0,0,1,4.59,4.59v2.176A4.6,4.6,0,0,1,740.06,443.138ZM673.89,432.656a3.72,3.72,0,0,0-3.716,3.716v2.176a3.72,3.72,0,0,0,3.716,3.716H740.06a3.72,3.72,0,0,0,3.716-3.716v-2.176a3.72,3.72,0,0,0-3.716-3.716Z" transform="translate(-484.253 -318.246)" fill="#3f3d56"/>
    <path id="Path_264" data-name="Path 264" d="M740.06,486.045H673.89a4.6,4.6,0,0,1-4.59-4.59v-2.176a4.6,4.6,0,0,1,4.59-4.59h66.171a4.6,4.6,0,0,1,4.59,4.59v2.176A4.6,4.6,0,0,1,740.06,486.045Zm-66.17-10.482a3.72,3.72,0,0,0-3.716,3.716v2.176a3.72,3.72,0,0,0,3.716,3.716h66.171a3.72,3.72,0,0,0,3.716-3.716v-2.176a3.72,3.72,0,0,0-3.716-3.716Z" transform="translate(-484.253 -342.396)" fill="#3f3d56"/>
    <path id="Path_265" data-name="Path 265" d="M804.059,217.4v42.137a45.263,45.263,0,0,1-56.779-43.748q0-1.854.149-3.669h24.842a7.257,7.257,0,0,0,6.725-10h9.776A15.281,15.281,0,0,1,804.059,217.4Z" transform="translate(-528.143 -188.98)" fill="#f0f0f0"/>
    <path id="Path_266" data-name="Path 266" d="M673.066,665.826c0,.888-.033,1.765-.1,2.632H650.309a15.281,15.281,0,0,1-15.282-15.283v-20.72a33.693,33.693,0,0,1,38.038,33.371Z" transform="translate(-464.962 -431.035)" fill="#6495ed"/>
    <path id="Path_267" data-name="Path 267" d="M294.506,554.142a2.626,2.626,0,0,0,3.458-1.341l20.406-46.248a5.849,5.849,0,0,0-7.465-7.815h0a5.77,5.77,0,0,0-2.951,2.527,5.97,5.97,0,0,0-.286.565l-20.406,46.248a2.623,2.623,0,0,0,1.341,3.459Z" transform="translate(-269.098 -355.709)" fill="#6495ed"/>
    <path id="Path_268" data-name="Path 268" d="M330.807,524.364l-20.184-4.486,5-13.216a13.967,13.967,0,0,1,14.994-10.329l.194.022Z" transform="translate(-282.373 -354.533)" fill="#2f2e41"/>
    <path id="Path_269" data-name="Path 269" d="M419.483,554.24a3.072,3.072,0,0,1-2.8-1.826l-20.406-46.248a6.286,6.286,0,0,1,11.2-5.682h0a6.377,6.377,0,0,1,.307.607l20.406,46.248a3.06,3.06,0,0,1-1.564,4.035l-6.1,2.693,0-.007A3.038,3.038,0,0,1,419.483,554.24Z" transform="translate(-330.279 -355.145)" fill="#6495ed"/>
    <path id="Path_270" data-name="Path 270" d="M382.108,591.169a2.626,2.626,0,0,0-2.623,2.623v53.776a2.626,2.626,0,0,0,2.623,2.623h6.452a2.626,2.626,0,0,0,2.623-2.623V593.792a2.626,2.626,0,0,0-2.623-2.623Z" transform="translate(-321.131 -407.956)" fill="#6495ed"/>
    <path id="Path_271" data-name="Path 271" d="M352.916,591.169a2.626,2.626,0,0,0-2.623,2.623v53.776a2.626,2.626,0,0,0,2.623,2.623h6.452a2.626,2.626,0,0,0,2.623-2.623V593.792a2.626,2.626,0,0,0-2.623-2.623Z" transform="translate(-304.701 -407.956)" fill="#6495ed"/>
    <circle id="Ellipse_51" data-name="Ellipse 51" cx="22.295" cy="22.295" r="22.295" transform="translate(35.334 82.283)" fill="#6495ed"/>
    <path id="Path_272" data-name="Path 272" d="M394.769,413.536a8.043,8.043,0,0,0,4.629-1.1,3.555,3.555,0,0,0,1.4-2.655,2.392,2.392,0,0,0-.813-1.964,3.086,3.086,0,0,0-2.919-.42l1.18-8.623-.866-.119-1.387,10.138.723-.332a2.647,2.647,0,0,1,2.705.024,1.537,1.537,0,0,1,.5,1.266,2.687,2.687,0,0,1-1.041,1.979,7.232,7.232,0,0,1-4.138.935Z" transform="translate(-329.72 -299.599)" fill="#2f2e41"/>
    <rect id="Rectangle_16" data-name="Rectangle 16" width="4.709" height="0.874" transform="translate(72.808 99.916)" fill="#2f2e41"/>
    <rect id="Rectangle_17" data-name="Rectangle 17" width="4.709" height="0.874" transform="translate(57.945 99.916)" fill="#2f2e41"/>
    <path id="Path_273" data-name="Path 273" d="M371.971,543.025l-8.024-58.579a2.623,2.623,0,0,0-2.6-2.267h-6.057a2.634,2.634,0,0,0,.039-.437v-2.186a2.623,2.623,0,0,0-2.623-2.623h-5.246a2.623,2.623,0,0,0-2.623,2.623v2.186a2.637,2.637,0,0,0,.039.437h-6.057a2.623,2.623,0,0,0-2.6,2.267L328.2,543.025A2.623,2.623,0,0,0,330.8,546h38.576a2.623,2.623,0,0,0,2.6-2.979Z" transform="translate(-292.251 -343.659)" fill="#2f2e41"/>
    <path id="Path_274" data-name="Path 274" d="M399.8,524.364V496.355l.194-.022a13.972,13.972,0,0,1,15,10.352l4.989,13.193Z" transform="translate(-332.563 -354.534)" fill="#2f2e41"/>
    <path id="Path_275" data-name="Path 275" d="M337.824,393.514,322.4,387.529c-2.522-.979-5.057-1.928-7.566-2.94a8.624,8.624,0,0,1-2.912-1.716,5.722,5.722,0,0,1-1.452-2.81,28.942,28.942,0,0,1-.4-7.039,53.643,53.643,0,0,1,.622-7.537,36.41,36.41,0,0,1,4.656-13.281c4.325-7.1,11.776-12.434,20.346-12.008a17.423,17.423,0,0,1,10.907,4.334,6.885,6.885,0,0,0,1.03,1,1.428,1.428,0,0,0,.82.055q.54-.035,1.08-.053a22.309,22.309,0,0,1,3.744.157,11.856,11.856,0,0,1,6.177,2.565,7.533,7.533,0,0,1,2.8,5.045,5.971,5.971,0,0,1-2.017,4.875c-1.84,1.551-4.465,1.006-6.672.889l-8.085-.428-4.1-.217c-.843-.045-.841,1.267,0,1.311l10.887.577a47.592,47.592,0,0,0,5.3.215,5.934,5.934,0,0,0,3.643-1.466,7.269,7.269,0,0,0,2.2-6.82,9.75,9.75,0,0,0-4.9-6.223c-3.185-1.8-6.989-1.969-10.553-1.7l.464.192a19.11,19.11,0,0,0-16-5.515,23.951,23.951,0,0,0-15.477,8.759,36.04,36.04,0,0,0-7.662,18.374,61.129,61.129,0,0,0-.473,10.876,13.7,13.7,0,0,0,.81,4.7,6.728,6.728,0,0,0,3.158,3.386,45.2,45.2,0,0,0,5.013,2.059l5.681,2.205,11.16,4.332,2.841,1.1c.787.306,1.128-.962.349-1.265Z" transform="translate(-281.318 -265.945)" fill="#2f2e41"/>
    <path id="Path_276" data-name="Path 276" d="M311.071,344.486a6.776,6.776,0,1,1,6.776-6.776A6.776,6.776,0,0,1,311.071,344.486Zm0-12.24a5.464,5.464,0,1,0,5.464,5.464A5.464,5.464,0,0,0,311.071,332.245Z" transform="translate(-278.811 -261.484)" fill="#2f2e41"/>
    <rect id="Rectangle_18" data-name="Rectangle 18" width="18.464" height="18.464" transform="matrix(0.794, 0.608, -0.608, 0.794, 130.863, 113.775)" fill="#f0f0f0"/>
    <path id="Path_277" data-name="Path 277" d="M357.288,196.926a14.841,14.841,0,0,1,11.924,5.99l8.564-11.2-25.7-19.653-19.653,25.7,11.075,8.47A14.865,14.865,0,0,1,357.288,196.926Z" transform="translate(-294.645 -172.066)" fill="#f0f0f0"/>
    <path id="Path_278" data-name="Path 278" d="M555.068,726.808H246.437a.437.437,0,1,1,0-.874H555.068a.437.437,0,0,1,0,.874Z" transform="translate(-246 -483.808)" fill="#3f3d56"/>
    <path id="Path_279" data-name="Path 279" d="M734.611,547.945H703.2a4.377,4.377,0,0,1-4.372-4.372V541.4a4.376,4.376,0,0,1,4.372-4.372h31.415a4.376,4.376,0,0,1,4.372,4.372v2.176A4.377,4.377,0,0,1,734.611,547.945Z" transform="translate(-500.871 -377.482)" fill="#6495ed"/>
    <path id="Path_280" data-name="Path 280" d="M741.9,537.786H710.487a4.6,4.6,0,0,1-4.59-4.59V531.02a4.6,4.6,0,0,1,4.59-4.59H741.9a4.6,4.6,0,0,1,4.59,4.59V533.2A4.6,4.6,0,0,1,741.9,537.786ZM710.487,527.3a3.72,3.72,0,0,0-3.716,3.716V533.2a3.72,3.72,0,0,0,3.716,3.716H741.9a3.72,3.72,0,0,0,3.716-3.716V531.02A3.72,3.72,0,0,0,741.9,527.3Z" transform="translate(-504.851 -371.518)" fill="#3f3d56"/>
  </g>
</svg>
