<svg xmlns="http://www.w3.org/2000/svg" width="300.544" height="243.759" viewBox="0 0 300.544 243.759">
  <g id="sign_up_alt" transform="translate(0 0)">
    <path id="Path_132" data-name="Path 132" d="M753.427,244.994a191.179,191.179,0,0,1-12.985,52.842c-8.626,21.643-20.412,40.706-34.083,55.127l-.759-.662c13.605-14.353,25.337-33.331,33.927-54.885,7.763-19.477,12.381-39.746,13.36-58.607l.969.162Q753.7,241.962,753.427,244.994Z" transform="translate(-513.495 -200.593)" fill="#f2f2f2"/>
    <path id="Path_133" data-name="Path 133" d="M741.323,505.788c-19.2,30.549-42.5,52.377-65.6,61.461l-.467-.857c22.94-9.022,46.1-30.738,65.214-61.147Z" transform="translate(-495.172 -361.48)" fill="#f2f2f2"/>
    <path id="Path_134" data-name="Path 134" d="M752.251,299.058A191.177,191.177,0,0,1,739.267,351.9c-8.626,21.642-20.412,40.705-34.083,55.127l-.759-.662c13.605-14.353,25.337-33.331,33.927-54.885,7.763-19.477,12.381-39.746,13.36-58.607l.969.162Q752.527,296.025,752.251,299.058Z" transform="translate(-512.785 -233.24)" fill="#f2f2f2"/>
    <path id="Path_135" data-name="Path 135" d="M258.717,384.159h-12.6a1.783,1.783,0,0,1-1.4-.675,1.746,1.746,0,0,1-.342-1.484,34.263,34.263,0,0,0-.22-16.058,1.786,1.786,0,0,1,.693-1.877c6.478-4.659,11.58-4.524,15.164.4a1.791,1.791,0,0,1,.314.757,56.071,56.071,0,0,1,.157,17.4A1.779,1.779,0,0,1,258.717,384.159Z" transform="translate(-234.819 -274.177)" fill="#e6e6e6"/>
    <path id="Path_136" data-name="Path 136" d="M263.147,385.361h-4.334a.9.9,0,0,1,0-1.807h4.334a.9.9,0,1,1,0,1.807Z" transform="translate(-243.155 -287.996)" fill="#fff"/>
    <path id="Path_137" data-name="Path 137" d="M263.147,393.361h-4.334a.9.9,0,0,1,0-1.807h4.334a.9.9,0,1,1,0,1.807Z" transform="translate(-243.155 -292.827)" fill="#fff"/>
    <path id="Path_138" data-name="Path 138" d="M263.147,401.361h-4.334a.9.9,0,0,1,0-1.807h4.334a.9.9,0,1,1,0,1.807Z" transform="translate(-243.155 -297.658)" fill="#fff"/>
    <path id="Path_139" data-name="Path 139" d="M836.717,526.159h-12.6a1.783,1.783,0,0,1-1.4-.675,1.746,1.746,0,0,1-.342-1.484,34.264,34.264,0,0,0-.22-16.058,1.786,1.786,0,0,1,.693-1.877c6.478-4.659,11.58-4.524,15.164.4a1.791,1.791,0,0,1,.314.757,56.07,56.07,0,0,1,.157,17.4,1.779,1.779,0,0,1-1.767,1.534Z" transform="translate(-583.846 -359.925)" fill="#e6e6e6"/>
    <path id="Path_140" data-name="Path 140" d="M841.147,527.361h-4.334a.9.9,0,0,1,0-1.807h4.334a.9.9,0,1,1,0,1.807Z" transform="translate(-592.182 -373.744)" fill="#fff"/>
    <path id="Path_141" data-name="Path 141" d="M841.147,535.361h-4.334a.9.9,0,1,1,0-1.807h4.334a.9.9,0,1,1,0,1.807Z" transform="translate(-592.182 -378.575)" fill="#fff"/>
    <path id="Path_142" data-name="Path 142" d="M841.147,543.361h-4.334a.9.9,0,0,1,0-1.807h4.334a.9.9,0,1,1,0,1.807Z" transform="translate(-592.182 -383.405)" fill="#fff"/>
    <path id="Path_143" data-name="Path 143" d="M521.209,755.755a.47.47,0,0,1-.471.471h-299.6a.471.471,0,1,1,0-.943h299.6a.47.47,0,0,1,.471.471Z" transform="translate(-220.665 -512.467)" fill="#ccc"/>
    <path id="Path_144" data-name="Path 144" d="M393.67,661.266l-.786-10.929a35.354,35.354,0,0,0-16.6-3.722c8.094,6.256,7.446,18.76,13.051,27.318a21.265,21.265,0,0,0,15.857,9.4l6.736,3.875a35.634,35.634,0,0,0-8.3-28.66,34.417,34.417,0,0,0-6.484-5.7C395.677,657.071,393.67,661.266,393.67,661.266Z" transform="translate(-314.637 -446.841)" fill="#f2f2f2"/>
    <path id="Path_145" data-name="Path 145" d="M751.385,665.266l.786-10.929a35.354,35.354,0,0,1,16.6-3.722c-8.094,6.256-7.446,18.761-13.051,27.318a21.266,21.266,0,0,1-15.857,9.4l-6.736,3.875a35.634,35.634,0,0,1,8.3-28.66,34.423,34.423,0,0,1,6.484-5.7C749.379,661.071,751.385,665.266,751.385,665.266Z" transform="translate(-529.874 -449.257)" fill="#f2f2f2"/>
    <circle id="Ellipse_19" data-name="Ellipse 19" cx="7.527" cy="7.527" r="7.527" transform="translate(139.18 77.622)" fill="#6c63ff"/>
    <path id="Path_146" data-name="Path 146" d="M589.9,349.1a.609.609,0,0,0-.84,0,24.928,24.928,0,0,0-4.271,4.363l-.913-1.766c-.351-.68-1.377-.079-1.026.6l1.335,2.584a.6.6,0,0,0,1.026,0,24.066,24.066,0,0,1,4.689-4.939A.6.6,0,0,0,589.9,349.1Z" transform="translate(-439.325 -267.093)" fill="#fff"/>
    <path id="Path_147" data-name="Path 147" d="M488.683,373.256l-11.35-17.825,13.143-7.039,3.45,13.6,24.306,13.134a5.255,5.255,0,1,1-2.991,7.15Z" transform="translate(-375.655 -266.764)" fill="#a0616a"/>
    <path id="Path_148" data-name="Path 148" d="M455.436,304.909c-3.566,5.236,9.107,24.269,9.107,24.269.617-1.331,6.519,13.614,7.508,12.731,2.809-2.509,7.207-9.5,9.652-9.81,1.4-.178-3.242-10.093-3.242-10.093s-2.121-5.855-5-13.334a13.43,13.43,0,0,0-9.755-8.531S459,299.673,455.436,304.909Z" transform="translate(-362.05 -237.621)" fill="#3f3d56"/>
    <path id="Path_149" data-name="Path 149" d="M236.173,568.8h5.39l2.564-20.792h-7.956Z" transform="translate(-142.613 -330.915)" fill="#a0616a"/>
    <path id="Path_150" data-name="Path 150" d="M453.368,734.713h1.517l5.924-2.409,3.175,2.409h0a6.765,6.765,0,0,1,6.765,6.765v.22H453.368Z" transform="translate(-361.184 -498.59)" fill="#2f2e41"/>
    <path id="Path_151" data-name="Path 151" d="M299.39,568.8h5.39l2.565-20.792h-7.956Z" transform="translate(-180.787 -330.915)" fill="#a0616a"/>
    <path id="Path_152" data-name="Path 152" d="M516.585,734.713H518.1l5.924-2.409,3.175,2.409h0a6.765,6.765,0,0,1,6.765,6.765v.22H516.585Z" transform="translate(-399.357 -498.59)" fill="#2f2e41"/>
    <path id="Path_153" data-name="Path 153" d="M463.587,455.889l-35.062.877c-6.659,3.617-6.76,11.445-4.578,20.739,0,0-.737,5.524.737,7s2.21,1.473,1.473,4.051,3.155,6.789,2.682,7.261a19.052,19.052,0,0,0-1.578,3.051l3.683,20.992s2.578,36.46,3.315,37.2,1.473,0,.737,1.841-1.473,1.1-.737,1.841a27.112,27.112,0,0,1,1.841,2.21H445s.671-3.683.671-4.051.737-2.578.737-2.946-.651-1.019-.651-1.019a12.116,12.116,0,0,1-.454-2.3c0-.737-2.21-29.094-2.21-29.094l4.419-36.828L458.2,522.8s0,31.672.737,32.409.737.368.368,1.841-1.841,1.1-.737,2.21,1.473-.737,1.1,1.1l-.368,1.841,11.048.158s1.473-3.1.737-4.209-.692-.8.206-2.611,1.267-2.176.9-2.545-.368-2.327-.368-2.327l-1.841-35.237s-.368-37.2-.368-38.3a3.673,3.673,0,0,1,.306-1.657v-1.5l-1.411-5.314Z" transform="translate(-342.651 -331.676)" fill="#2f2e41"/>
    <circle id="Ellipse_20" data-name="Ellipse 20" cx="10.894" cy="10.894" r="10.894" transform="translate(88.98 29.519)" fill="#a0616a"/>
    <path id="Path_154" data-name="Path 154" d="M444.21,281.956c2.347,1.4,3.751,3.959,4.557,6.568a62.238,62.238,0,0,1,2.675,14.87l.851,15.11,10.543,32.173c-9.137,7.731-43.481,1.757-43.481,1.757s-1.054-.351,0-1.406,2.081-.12,1.026-1.174-.328.12.024-.934,0-.351-.351-.7,2.72-3.514,2.72-3.514l-2.811-18.467-3.514-37.25c4.217-5.271,12.7-8.379,12.7-8.379l2.191-3.944,10.957.877Z" transform="translate(-338.889 -223.449)" fill="#3f3d56"/>
    <path id="Path_155" data-name="Path 155" d="M462.794,216.626a5.048,5.048,0,0,1,1.794,2.519,35.454,35.454,0,0,0,.023-4.943c-.128-1.157-.943-1.417-1.886-1.719-.852-.272-1.815-.58-2.074-1.7-3.424-3.331-9.386-3.163-13.465-2-2.245.639-3.537,1.461-3.652,1.942l-.024.1-.091.046c-1.73.865-2.067,3.6-2.045,5.737.042,4.031,1.434,8.609,2.218,8.981.041.02.052.012.07,0h0c1.181-.944,2.621.072,3.254.624a11.33,11.33,0,0,1,10.145-9.61,17.774,17.774,0,0,0,2.445-.41,5.149,5.149,0,0,1,1.249-.164A3.555,3.555,0,0,1,462.794,216.626Z" transform="translate(-353.94 -182.001)" fill="#2f2e41"/>
    <path id="Path_156" data-name="Path 156" d="M653.343,413.942l20.956-21.28,5.521-17.02-8.885-3.594c-4.4,4.44-8.932,18.031-8.932,18.031l-14.3,19.2c-.114.042-.228.087-.34.14a4.234,4.234,0,1,0,5.983,4.526Z" transform="translate(-476.861 -281.049)" fill="#ffb8b8"/>
    <path id="Path_157" data-name="Path 157" d="M704.453,345.872l11.236,3.25.042-.008c4.13-.8,7.4-7.666,9.41-13.282a7.763,7.763,0,0,0-4.2-9.728h0a7.78,7.78,0,0,0-8.119,1.238l-5.6,4.824Z" transform="translate(-512.802 -252.925)" fill="#6c63ff"/>
    <path id="Path_158" data-name="Path 158" d="M445.928,563.367h-6.043l-2.874-23.307h8.918Z" transform="translate(-263.891 -326.117)" fill="#ffb8b8"/>
    <path id="Path_159" data-name="Path 159" d="M654.377,732.135h-1.7l-6.64-2.7-3.559,2.7h0a7.584,7.584,0,0,0-7.584,7.583v.247h19.484Z" transform="translate(-470.798 -496.857)" fill="#2f2e41"/>
    <path id="Path_160" data-name="Path 160" d="M513.611,563.367h-6.043l-2.874-23.307h8.918Z" transform="translate(-304.761 -326.117)" fill="#ffb8b8"/>
    <path id="Path_161" data-name="Path 161" d="M722.06,732.135h-1.7l-6.64-2.7-3.559,2.7h0a7.584,7.584,0,0,0-7.584,7.583v.247h19.484Z" transform="translate(-511.668 -496.857)" fill="#2f2e41"/>
    <path id="Path_162" data-name="Path 162" d="M694.764,484.042a64.143,64.143,0,0,1-1.058,16.581c-1.764,8.114-1.764,30.967-1.764,30.967l-3.881,44.531-11.642-1.058-3.175-74.44-11.289,25.048,1.058,3.528-1.41.882s1.057,6.88.352,6.88a8.429,8.429,0,0,0-2.47,1.058l1.411,36.338L648.9,574l-4.234-51.155,4.587-29.282.353-5.645,1.588.065L652,485.63l1.485-4.057Z" transform="translate(-476.7 -347.186)" fill="#2f2e41"/>
    <path id="Path_163" data-name="Path 163" d="M705.054,368.586l.063-.088c3.358-4.7-1.692-16-2.454-17.637l3.208-1.041-.722-6.141-.342-2.738,2.452-2.452.007-.061,1.411-12.348,2.052-8.2a18.005,18.005,0,0,0-5.11-17.449l-4.743-4.472-5.764-8.529h-9.295l-3.187,6.02a13.548,13.548,0,0,0-10.482,13.832l.722,15.788-2.828,19.658,0,3.558-3.182,3.537.695,3.474-2.422,1.038-1.069,4.99c-.443.584-3.364,4.479-3.364,5.544,0,.16.118.314.371.486,1.991,1.348,12.993,4.1,17.863,2.147,5.187-2.074,25.807,1.037,26.015,1.069Z" transform="translate(-486.38 -229.951)" fill="#6c63ff"/>
    <circle id="Ellipse_21" data-name="Ellipse 21" cx="12.31" cy="12.31" r="12.31" transform="translate(190.573 30.105)" fill="#ffb8b8"/>
    <path id="Path_164" data-name="Path 164" d="M706.08,237.78a33.472,33.472,0,0,0,5.683-.545c1.857-.428,5.953-3.6,7.069-5.467h0a16.45,16.45,0,0,0,1.6-5.1,14.966,14.966,0,0,0-2.923-11.81,4.729,4.729,0,0,0-1.951-1.58c-.069-.025-.14-.047-.212-.065a5.834,5.834,0,0,1-2.948-1.72,4.806,4.806,0,0,0-.495-.484,7.186,7.186,0,0,0-3.036-1.428c-1.794-.431-4.36.109-7.627,1.606a8.063,8.063,0,0,1-4.867.275.457.457,0,0,0-.426.158,3.227,3.227,0,0,1-2.17.93c-.5.035-1,.739-1.614,1.657-.138.208-.3.451-.417.6l-.023-.279-.274.318a3.915,3.915,0,0,0,1.932,6.331,7.635,7.635,0,0,0,1.541.205c.315.02.641.041.953.087a5.9,5.9,0,0,1,4.484,3.716,1.544,1.544,0,0,0,2.348.689,2.55,2.55,0,0,1,2.312-.483,1.693,1.693,0,0,1,.77.829,2.206,2.206,0,0,0,.862.955c1.282.619,1.443,3.506,1.051,5.926-.378,2.333-1.2,4.034-2,4.138-.615.08-.685.125-.727.236l-.037.1.072.09A2.521,2.521,0,0,0,706.08,237.78Z" transform="translate(-504.376 -182.856)" fill="#2f2e41"/>
    <path id="Path_165" data-name="Path 165" d="M628.541,368.793l-5.917-7.539c-6.027,1.66-16.722,11.192-16.722,11.192l-21.963,9.531a4.231,4.231,0,1,0,2.571,6.856l28.771-8.027Z" transform="translate(-437.05 -274.531)" fill="#ffb8b8"/>
    <path id="Path_166" data-name="Path 166" d="M685.471,344.924l9.336-10.408.518-7.375a7.781,7.781,0,0,0-3.861-7.249h0a7.763,7.763,0,0,0-10.313,2.445c-3.3,4.972-6.848,11.694-5.022,15.484l.018.038Z" transform="translate(-495.399 -248.938)" fill="#6c63ff"/>
    <path id="Path_167" data-name="Path 167" d="M443.539,405.789l-24.266-12.428A3.829,3.829,0,0,1,418,388.135l15.822-30.893a3.829,3.829,0,0,1,4.986-2.02l24.266,12.428a3.829,3.829,0,0,1,1.275,5.227l-15.822,30.893A3.829,3.829,0,0,1,443.539,405.789Z" transform="translate(-339.519 -270.683)" fill="#e6e6e6"/>
    <path id="Path_168" data-name="Path 168" d="M445.1,406.143,428.616,397.7a3.586,3.586,0,0,1-1.194-4.9l13.145-25.665a3.586,3.586,0,0,1,4.67-1.892l19.912,10.2a3.586,3.586,0,0,1,1.194,4.895L459.2,394.283C454.933,402.618,452.3,409.831,445.1,406.143Z" transform="translate(-345.229 -276.75)" fill="#fff"/>
    <path id="Path_169" data-name="Path 169" d="M470.512,419.659l-14.6-7.479a.913.913,0,0,1,.824-1.609l14.6,7.479a.913.913,0,0,1-.824,1.608Z" transform="translate(-362.487 -304.282)" fill="#6c63ff"/>
    <path id="Path_170" data-name="Path 170" d="M455.133,421.909,451.8,420.2a.913.913,0,0,1,.824-1.609l3.332,1.707a.913.913,0,0,1-.824,1.609Z" transform="translate(-360.005 -309.126)" fill="#6c63ff"/>
    <path id="Path_171" data-name="Path 171" d="M456.926,432.954l-9.235-4.73a.913.913,0,0,1,.824-1.609l9.235,4.729a.913.913,0,0,1-.824,1.609Z" transform="translate(-357.524 -313.97)" fill="#6c63ff"/>
    <path id="Path_172" data-name="Path 172" d="M485.1,391.177,470.5,383.7a.913.913,0,0,1,.824-1.609l14.6,7.479a.913.913,0,0,1-.824,1.609Z" transform="translate(-371.295 -287.083)" fill="#6c63ff"/>
    <path id="Path_173" data-name="Path 173" d="M469.72,393.427l-3.332-1.707a.913.913,0,0,1,.824-1.609l3.332,1.707a.913.913,0,0,1-.824,1.609Z" transform="translate(-368.814 -291.927)" fill="#6c63ff"/>
    <path id="Path_174" data-name="Path 174" d="M471.513,404.472l-9.235-4.73a.913.913,0,0,1,.824-1.609l9.235,4.729a.913.913,0,0,1-.824,1.609Z" transform="translate(-366.333 -296.772)" fill="#6c63ff"/>
    <path id="Path_175" data-name="Path 175" d="M424.129,380.158l-5.482-20.408,14.649-2.773-.788,14.008L451.756,390.8a5.255,5.255,0,1,1-5,5.924Z" transform="translate(-340.217 -271.948)" fill="#a0616a"/>
    <path id="Path_176" data-name="Path 176" d="M411.973,302.394c-4.972,3.925,1.41,25.883,1.41,25.883.988-1.084,2.136,14.943,3.344,14.4,3.433-1.551,9.724-6.9,12.15-6.463,1.387.249-.066-10.6-.066-10.6s-.267-6.221-.77-14.219a13.43,13.43,0,0,0-6.748-11.064S416.946,298.469,411.973,302.394Z" transform="translate(-335.043 -237.474)" fill="#3f3d56"/>
    <path id="Path_177" data-name="Path 177" d="M601.715,487.489l-13.242-6.253a2.072,2.072,0,0,1-1.137-1.4,2.03,2.03,0,0,1,.377-1.729,39.844,39.844,0,0,0,7.69-16.739,2.059,2.059,0,0,1,2.017-1.66c6.753.023,11.8,2.489,15,7.328a2.084,2.084,0,0,1,.273,1.733,65.178,65.178,0,0,1-8.362,17.988A2.068,2.068,0,0,1,601.715,487.489Z" transform="translate(-442.047 -333.98)" fill="#e6e6e6"/>
    <path id="Path_178" data-name="Path 178" d="M617.2,497.366l-10.125-4.781a1.05,1.05,0,1,1,.9-1.9l10.125,4.781a1.05,1.05,0,1,1-.9,1.9Z" transform="translate(-453.637 -352.627)" fill="#fff"/>
    <path id="Path_179" data-name="Path 179" d="M621.171,488.958l-10.125-4.781a1.05,1.05,0,1,1,.9-1.9l10.125,4.781a1.05,1.05,0,1,1-.9,1.9Z" transform="translate(-456.035 -347.55)" fill="#fff"/>
    <path id="Path_180" data-name="Path 180" d="M421.249,179.185l-.943.1c-4.2-16.513-12.347-27.953-23.556-33.084-14.249-6.522-31.867-2.142-49.611,12.332-17.834,14.548-33.622,37.528-44.454,64.708l-.915-.419c10.88-27.3,26.749-50.389,44.683-65.018,18.024-14.7,36-19.115,50.624-12.422C408.607,150.662,416.965,162.35,421.249,179.185Z" transform="translate(-269.641 -142.337)" fill="#f2f2f2"/>
    <path id="Path_181" data-name="Path 181" d="M301,288.933c-2.465,5.192-4.809,10.571-6.968,15.988-12.423,31.17-18.719,63-18.2,92.058l-.971-.1c-.515-29.164,5.8-61.106,18.261-92.373,2.165-5.432,4.516-10.826,6.988-16.033Z" transform="translate(-253.372 -230.58)" fill="#f2f2f2"/>
    <path id="Path_182" data-name="Path 182" d="M299.826,343c-2.465,5.192-4.809,10.571-6.968,15.988-12.423,31.17-18.719,63-18.2,92.058l-.971-.1c-.515-29.164,5.8-61.106,18.261-92.373,2.165-5.432,4.516-10.826,6.988-16.033Z" transform="translate(-252.662 -263.226)" fill="#f2f2f2"/>
    <ellipse id="Ellipse_22" data-name="Ellipse 22" cx="3.509" cy="4.039" rx="3.509" ry="4.039" transform="translate(12.398 86.008) rotate(-56.364)" fill="#ccc"/>
    <ellipse id="Ellipse_23" data-name="Ellipse 23" cx="3.509" cy="4.039" rx="3.509" ry="4.039" transform="translate(240.953 144.27) rotate(-56.364)" fill="#ccc"/>
  </g>
</svg>
