<svg xmlns="http://www.w3.org/2000/svg" width="408" height="208.548" viewBox="0 0 408 208.548">
  <g id="team_up" transform="translate(0 0)">
    <path id="Path_63" data-name="Path 63" d="M751.671,203.351l-1.278,10.177-3.172,25.278H683.5c.5-5.666,1.178-13.82,1.9-22.624.072-.879.147-1.764.218-2.654,1.822-22.129,3.816-47.171,3.816-47.171l8.378,1.561,16.254,3.022,6.623,1.231,17.736,3.3c8.843,1.643,14.926,14.447,13.243,27.877Z" transform="translate(-361.781 -88.055)" fill="#f2f2f2"/>
    <path id="Path_64" data-name="Path 64" d="M710.58,79.358l7.836,13.713-15.062,10.674L696.93,86.889Z" transform="translate(-368.891 -42.005)" fill="#ffb6b6"/>
    <circle id="Ellipse_7" data-name="Ellipse 7" cx="19.413" cy="19.413" r="19.413" transform="translate(312.299 11.5)" fill="#ffb6b6"/>
    <path id="Path_65" data-name="Path 65" d="M676.352,43.911c-1.541-2.346-.936-3.573-2.227-4.435,0,0-.519-.347-4.236-.545h0c-.832-5.989-1.871-6.715-1.871-6.715a4.367,4.367,0,0,0-4.079-.053c-2.338,1.083-2.067,3.422-3.641,3.869-2.174.618-6.13-2.867-6.52-6.857-.318-3.255,1.779-6.416,2.611-6.249s2.8-2.355,3.865-2.316c.728.027,3.7-1.266,4.5-1.165.874.11,3.755,1.614,3.875,1.271.834-2.387.589-3.05,1.3-3.733,1.255-1.21,3.307-.367,6.527.085,6.625.931,7.781-1.253,11.176.227,1.715.748,3.15,2.765,5.95,6.768,3.916,5.6,5.874,8.4,5.886,11.663.013,3.33-1.6,3.118-2.308,8.048-.788,5.487.887,8-.943,9.779-1.414,1.378-4.289,1.7-5.8.5-2.586-2.07.8-7.066-2.064-10.716-1.757-2.24-5.29-3.237-6.908-2.13-1.83,1.252-.822,4.928-2.109,5.276-1.1.3-2.717-2.16-2.986-2.568Z" transform="translate(-346.033 -8.658)" fill="#2f2e41"/>
    <path id="Path_66" data-name="Path 66" d="M731.314,165.57c-.541,9.258-2.692,12.181-3.446,23.116-.165,2.4-.263,5.187-.263,8.51,0,.847,0,1.666,0,2.467a40.654,40.654,0,0,1-.231,4.947,21.793,21.793,0,0,1-.837,4H684.729c0-.009,0-.019-.01-.028a29.042,29.042,0,0,1-.518-3.055q-.056-.466-.1-.918c-.038-.353-.071-.7-.1-1.045a27.12,27.12,0,0,0-.556-3.9,10,10,0,0,0-2.645-4.872,13.335,13.335,0,0,0-1.836-1.563c-.118-.08-.231-.16-.348-.24-1.666-1.144-3.243-1.968-4.608-4.3-.023-.033-.042-.071-.061-.1a14.3,14.3,0,0,1-1.29-2.914,9.494,9.494,0,0,1-.24-5.267c1.21-4.528,5.691-4.98,9.353-9.555a16.056,16.056,0,0,0,1.158-1.647,20.916,20.916,0,0,0,2.631-7.884c.085-.457.16-.909.221-1.346.047-.33.09-.654.123-.974a25.646,25.646,0,0,0-.193-7.074c-1.12-6.783-4.425-10.981-2.09-17.067a15.451,15.451,0,0,1,2.824-4.575c2.221-2.6,4.5-4.293,4.109-7.653-.4-3.389-2.97-3.855-3.257-6.816a7.726,7.726,0,0,1,1.261-4.622v0c2.937-4.985,10.271-9.574,14.93-9.428a4.678,4.678,0,0,1,2.259.588c2.3,1.356,1.342,4.316,4.867,8.468a19.306,19.306,0,0,0,6.712,4.9c4.457,2.325,8.082,9.183,10.543,17.952.019.066.038.132.057.2a100.394,100.394,0,0,1,3.126,18.056c.226,2.678.358,5.371.386,8.035.024,2.128-.023,3.973-.122,5.615Z" transform="translate(-355.772 -53.858)" fill="#6495ed"/>
    <g id="Group_14" data-name="Group 14" transform="translate(326.782 68.157)">
      <path id="Path_67" data-name="Path 67" d="M716.34,301.573l-.852,2.372-.537,1.487-1.243,3.46-1.44,4H703.01l1.553-4,.72-1.864,1.2-3.083,2.005-5.178Z" transform="translate(-698.891 -226.298)" fill="#ffb6b6"/>
      <path id="Path_68" data-name="Path 68" d="M739.719,155.64c-.023.306-.056.645-.09,1.012-.367,3.737-1.233,10.426-2.5,18.056-.668,4.024-1.45,8.312-2.33,12.572-1.892,9.193-4.245,18.244-6.905,24.193a29.49,29.49,0,0,1-1.464,2.9q-.571.981-1.2,1.934a56.85,56.85,0,0,1-4.453,5.907c-.061.08-.132.155-.2.235-.254.3-.518.6-.781.894-1.29,1.454-2.608,2.81-3.883,4.053-1.553,1.516-3.05,2.857-4.392,4H696.486l-.061-.028-2.165-.96s.616-.725,1.647-2.094c.212-.278.438-.584.683-.918.3-.41.626-.861.974-1.351.725-1.026,1.549-2.231,2.433-3.6,1.714-2.641,3.667-5.888,5.639-9.649.226-.438.457-.88.687-1.327,0-.014.014-.028.019-.042.391-.763.777-1.549,1.163-2.349a50.184,50.184,0,0,0,4.477-14.285,55.746,55.746,0,0,0,.758-10.191,29.391,29.391,0,0,0-1.384-8.162v0c-.188-.579-.4-1.158-.64-1.732a23.155,23.155,0,0,0-1.539-3.05c-2.659-4.415-4.82-4.6-6.538-9.409a18.678,18.678,0,0,1-1.309-8.044v0a11,11,0,0,1,.207-1.266v0c.023-.118.057-.24.09-.358a9.56,9.56,0,0,1,1.384-3.05,10.618,10.618,0,0,1,4.711-3.7l.005,0a13.451,13.451,0,0,1,3.766-.965c6.876-.612,12.209,5.168,15.123,8.327q1.687,1.828,3.1,3.074c7.328,6.543,9.338,2.363,9.861.2a7.439,7.439,0,0,0,.146-.81Z" transform="translate(-694.26 -144.802)" fill="#6495ed"/>
      <path id="Path_69" data-name="Path 69" d="M790.864,167.308a2.061,2.061,0,0,1-.023.235c.009-.071.014-.141.019-.207C790.859,167.322,790.859,167.313,790.864,167.308Z" transform="translate(-745.381 -156.715)" fill="#6c63ff"/>
    </g>
    <path id="Path_70" data-name="Path 70" d="M422.949,378.318H170.635a4.253,4.253,0,1,0,0,8.505H422.949a4.253,4.253,0,0,0,0-8.505Z" transform="translate(-88.066 -200.247)" fill="#e6e6e6"/>
    <path id="Path_71" data-name="Path 71" d="M429.922,425H289.59a4.253,4.253,0,0,0,0,8.505H429.922a4.253,4.253,0,1,0,0-8.505Z" transform="translate(-151.033 -224.955)" fill="#e6e6e6"/>
    <path id="Path_72" data-name="Path 72" d="M235.069,73.749l15.9-6.692,6.821,13.982-16.71,6.821Z" transform="translate(-124.424 -35.494)" fill="#ffb6b6"/>
    <path id="Path_73" data-name="Path 73" d="M235.069,73.749l15.9-6.692,6.821,13.982-16.71,6.821Z" transform="translate(-124.424 -35.494)" opacity="0.1"/>
    <path id="Path_74" data-name="Path 74" d="M169.692,68.421,185.379,86.5s-10.913,34.444-21.826,37.513-31.033,18.074-31.033,18.074l-25.236-16.369,12.277-18.074s29.669-40.582,37.513-40.582a50.406,50.406,0,0,1,12.618,1.364Z" transform="translate(-56.786 -35.494)" fill="#6495ed"/>
    <path id="Path_75" data-name="Path 75" d="M130.594,248.372H94.077l-2.309-3.086-9.426-12.6-2.169-2.9s-8.185-15.005-6.479-28.646,19.439-16.71,19.439-16.71h.73l21.71,19.077-1.3,17.754,6.875,11.424,9.443,15.687Z" transform="translate(-38.883 -97.62)" fill="#2f2e41"/>
    <path id="Path_76" data-name="Path 76" d="M122.144,303.979h-9.788V289.486Z" transform="translate(-59.471 -153.227)" fill="#2f2e41"/>
    <path id="Path_77" data-name="Path 77" d="M508.619,247.715l-1.217,6.316-3.022,15.687h-60.7c.474-3.516,1.122-8.577,1.814-14.04.068-.546.14-1.095.208-1.647,1.736-13.733,3.635-29.274,3.635-29.274l7.98.969L472.8,227.6l6.309.764L496,230.415a14.639,14.639,0,0,1,12.615,17.3Z" transform="translate(-234.844 -118.966)" fill="#f2f2f2"/>
    <path id="Path_78" data-name="Path 78" d="M727.121,313.624H694.2c.5-.59.784-.931.784-.931l9.869-1.63,20.335-3.356S726.115,310.1,727.121,313.624Z" transform="translate(-367.445 -162.872)" fill="#2f2e41"/>
    <path id="Path_79" data-name="Path 79" d="M452.456,95.766l14.317,20.248-24.974.746-2.681-19.029Z" transform="translate(-232.429 -50.69)" fill="#a0616a"/>
    <path id="Path_80" data-name="Path 80" d="M452.456,95.766l14.317,20.248-24.974.746-2.681-19.029Z" transform="translate(-232.429 -50.69)" opacity="0.1"/>
    <path id="uuid-ae755ff6-bb09-410e-86b1-7d1b81a37005" d="M302.759,176.225c-1.837-5.3-6.061-8.647-9.433-7.478s-4.616,6.413-2.778,11.715a14.036,14.036,0,0,0,3.513,5.622l8.067,22.356,10.41-4.009-9.058-21.614a14.038,14.038,0,0,0-.722-6.592Z" transform="translate(-153.34 -89.196)" fill="#a0616a"/>
    <path id="Path_81" data-name="Path 81" d="M447.224,141.6l-.02,20.635-1.92,7.622-3.949,15.677L438.46,199.95l-2.142,10.742-.764,3.837q-.865.578-1.722,1.108H383.951a38.364,38.364,0,0,1-4.42-3.025,16.817,16.817,0,0,0,1.681-1.92c1.514-2,3.345-5.272,2.223-8.4a5.668,5.668,0,0,1-.225-2.343c.457-5.873,6.616-15.8,6.616-15.8l-1.275-14.739-.559-6.459,3.943-31.494,12.853-7.472,2.219-.215,21.9-1.183,9.053.522.413.113,8.846,18.378Z" transform="translate(-200.889 -64.885)" fill="#ccc"/>
    <g id="Group_15" data-name="Group 15" transform="translate(232.456 58.146)">
      <path id="Path_82" data-name="Path 82" d="M512.59,313.751H501.677l-.481-4.945-.01-.1,3.09-.211,8.038-.549.14,2.96.109,2.272Z" transform="translate(-497.738 -221.145)" fill="#ffb6b6"/>
      <path id="Path_83" data-name="Path 83" d="M511.4,147.088l4.584,26.9-3.741,26.467-.583,4.12-1.03,7.274-.317,2.237.01.242.078,1.814H497.441l-.477-4.945-.041-.443-.975-10.128-.017-.171-2.07-21.478,4.058-15.524.3-1.142v0l1.766-26.58-1.367-12.079-.014-.113.078.051c.072.044.143.089.211.136A26.97,26.97,0,0,1,511.4,147.088Z" transform="translate(-493.861 -123.533)" fill="#ccc"/>
    </g>
    <path id="Path_84" data-name="Path 84" d="M354.56,146.583l-4.983-5.154s-10.668,4.809-11.2,7.477-19.367,41.857-19.367,41.857l-8.195-21.887L300.148,176s8.559,33.98,16.564,35.575,34.832-40.219,34.832-40.219l3.016-24.771Z" transform="translate(-158.871 -74.859)" fill="#ccc"/>
    <path id="Path_85" data-name="Path 85" d="M398.035,286.447H9.96a9.962,9.962,0,0,0,0,19.924H398.035a9.962,9.962,0,1,0,0-19.924Z" transform="translate(0 -151.619)" fill="#e6e6e6"/>
    <path id="Path_86" data-name="Path 86" d="M428.58,214.741l-.754,35.209a6.268,6.268,0,0,1-6.266,6.133H356.791a6.267,6.267,0,0,1-6.258-5.925l-1.925-35.209a6.267,6.267,0,0,1,6.258-6.61h67.448a6.267,6.267,0,0,1,6.266,6.4Z" transform="translate(-184.516 -110.276)" fill="#3f3d56"/>
    <circle id="Ellipse_8" data-name="Ellipse 8" cx="15.496" cy="15.496" r="15.496" transform="translate(124.01 15.762)" fill="#ffb6b6"/>
    <path id="Path_87" data-name="Path 87" d="M223.353,149.483l1.705,18.415,11.6,46.721-10.017,3.511-16.924-50.914-2.337-20.461Z" transform="translate(-109.765 -77.679)" fill="#ffb6b6"/>
    <path id="Path_88" data-name="Path 88" d="M141.58,214.741l-.754,35.209a6.267,6.267,0,0,1-6.266,6.133H69.792a6.267,6.267,0,0,1-6.258-5.925l-1.925-35.209a6.267,6.267,0,0,1,6.258-6.61h67.448a6.267,6.267,0,0,1,6.266,6.4Z" transform="translate(-32.605 -110.276)" fill="#3f3d56"/>
    <ellipse id="Ellipse_9" data-name="Ellipse 9" cx="12.238" cy="5.413" rx="12.238" ry="5.413" transform="translate(116.496 135.219)" fill="#ffb6b6"/>
    <path id="Path_89" data-name="Path 89" d="M190.242,115.992l6.991-37.259S216.672,76,217.354,82.484s-.487,38.146-.487,38.146l-26.624-4.638Z" transform="translate(-100.697 -41.372)" fill="#6495ed"/>
    <path id="Path_90" data-name="Path 90" d="M239.353,35.315s9.586-3.421,13.629-5.262,12.077,11,12.255,4.218-2.6-9.624-2.6-9.624S261.947,9.813,247,11.668c0,0,3.287-7.422-7.5-8.569s-27.577,24.909-26.074,28.8,3.306,7.114-.96,11.277-12.252,27.662-6.175,33.985,6.476,9.067,2.312,13-14.005,12.488-3.364,13.973-.974.376,6.959-6.6,19.509-6.693,15.187-17.888,3.187-27.239,2.247-29.672,2.105-17.889,2.105-17.889,7.086-1.041,7.616,3.229Z" transform="translate(-106.102 -1.621)" fill="#2f2e41"/>
    <g id="Group_16" data-name="Group 16" transform="translate(194.096 0)">
      <circle id="Ellipse_10" data-name="Ellipse 10" cx="16.869" cy="16.869" r="16.869" transform="translate(1.407 18.668)" fill="#a0616a"/>
      <path id="Path_91" data-name="Path 91" d="M431.986,12.858c-.488.285-1.142-.146-1.3-.689a2.826,2.826,0,0,1,.207-1.655l.91-2.7a13.842,13.842,0,0,1,2.729-5.346c2.11-2.2,5.463-2.755,8.482-2.35,3.877.52,7.7,2.619,9.5,6.09s1.035,8.315-2.222,10.48c4.642,5.32,6.26,11.25,6,18.306s-7.945,13.55-12.959,18.521c-1.12-.679-2.138-3.86-1.522-5.016s-.267-2.495.5-3.559,1.4.631.63-.428c-.487-.668,1.412-2.2.689-2.6-3.5-1.934-4.661-6.294-6.858-9.633a16.411,16.411,0,0,0-11.985-7.207,11.333,11.333,0,0,0-7.6,1.737A7.126,7.126,0,0,0,414.12,33.7a6.115,6.115,0,0,1,1.272-9.571,9.99,9.99,0,0,1,2.121-9.416c2.26-2.492,11.429-2.067,14.728-1.412l-.255-.438Z" transform="translate(-412.364 0)" fill="#2f2e41"/>
      <path id="Path_92" data-name="Path 92" d="M455.14,53.475c4.37.472,7.526,4.257,10.19,7.753,1.536,2.015,3.145,4.24,3.106,6.774-.039,2.561-1.751,4.758-2.57,7.185a10.829,10.829,0,0,0,3.15,11.406,6.291,6.291,0,0,1-7.091-4.918c-.632-3.674,2.153-7.22,1.823-10.934-.291-3.272-2.869-5.79-5.061-8.236s-4.25-5.692-3.242-8.818l-.306-.212Z" transform="translate(-435.006 -28.305)" fill="#2f2e41"/>
    </g>
    <g id="Group_17" data-name="Group 17" transform="translate(274.066 57.903)">
      <path id="uuid-aec20554-f6ec-4c5b-9d97-717cd04239bf" d="M587.762,276.238c-4.329,2.462-6.567,6.692-5,9.446s6.346,2.991,10.676.528a12.464,12.464,0,0,0,4.339-3.978l18.21-10.664-5.186-8.439-17.4,11.409a12.464,12.464,0,0,0-5.638,1.7Z" transform="translate(-582.262 -197.181)" fill="#ffb6b6"/>
      <path id="Path_93" data-name="Path 93" d="M667.048,123.875c-.544-.216-5.319-2.024-9.678.363-5.008,2.742-5.781,9-6.052,11.2-.627,5.072,1.22,6.209,1.609,11.344.729,9.607,2.652-1.353-.419,3.032-1.063,1.518-11.917,25.04-17.9,29.647-11.642,8.961-19.035,15.271-19.035,15.271l8.44,9.168a99.333,99.333,0,0,0,25.124-11.207c12.091-7.851,18.137-11.777,22.814-19.456.4-.661,10.04-17.028,4.865-35.125-1.181-4.128-3.344-11.691-9.766-14.236Z" transform="translate(-599.893 -123.017)" fill="#6495ed"/>
    </g>
    <path id="Path_94" data-name="Path 94" d="M727.58,214.741l-.755,35.209a6.268,6.268,0,0,1-6.266,6.133H655.791a6.267,6.267,0,0,1-6.258-5.925l-1.925-35.209a6.267,6.267,0,0,1,6.258-6.61h67.448a6.268,6.268,0,0,1,6.266,6.4Z" transform="translate(-342.779 -110.276)" fill="#3f3d56"/>
  </g>
</svg>
